<?xml version="1.0" encoding="UTF-8"?>
<svg version="1.1" xmlns="http://www.w3.org/2000/svg" width="512" height="512">
<path d="M0 0 C0.886875 0.680625 1.77375 1.36125 2.6875 2.0625 C3.5125 2.578125 4.3375 3.09375 5.1875 3.625 C11.47657517 9.75684829 14.74877257 17.89786837 15.125 26.5625 C14.86841376 52.07857601 -0.87100571 81.62066653 -15.3125 102.0625 C-15.9725 103.0525 -16.6325 104.0425 -17.3125 105.0625 C-16.71357752 105.05881283 -16.11465504 105.05512566 -15.49758339 105.05132675 C-0.89003652 104.96279246 13.71749444 104.89670155 28.32524681 104.85525131 C35.38961835 104.83467081 42.45381022 104.80663731 49.51806641 104.76074219 C56.3391451 104.71644826 63.16003726 104.69334257 69.98125076 104.68299103 C72.57989051 104.67561672 75.1785204 104.66121649 77.77708054 104.63957977 C81.42501386 104.61042144 85.0721832 104.60654936 88.72021484 104.60839844 C90.32136642 104.58682678 90.32136642 104.58682678 91.9548645 104.56481934 C99.95312424 104.60850993 106.63632759 106.25972513 113.2734375 110.8515625 C119.87742483 117.62858007 122.82987886 124.0520129 123.1875 133.5625 C122.81823305 143.38269284 119.7636443 149.72429997 112.6875 156.46875 C110.76003944 158.00469513 108.93156044 159.06068731 106.6875 160.0625 C107.37714844 160.2584375 108.06679688 160.454375 108.77734375 160.65625 C117.27478583 163.3605114 123.73880176 167.04902243 128.35546875 174.8984375 C132.35204318 183.60805909 133.000338 190.65137935 130.0625 199.75 C126.51819797 208.50578446 121.27610592 213.25854997 112.6875 217.0625 C110.35489583 217.88275641 108.0999533 218.49788327 105.6875 219.0625 C106.19539062 219.34222656 106.70328125 219.62195313 107.2265625 219.91015625 C114.12213919 223.92611945 119.68537547 228.84750295 122.21484375 236.6328125 C123.95745663 245.59070681 123.61003867 254.25099601 118.6875 262.0625 C113.96020455 268.89081565 108.36846091 272.73519902 100.25 274.3125 C98.98349609 274.50585938 98.98349609 274.50585938 97.69140625 274.703125 C95.69542928 274.86417614 95.69542928 274.86417614 94.6875 276.0625 C95.26757812 276.39121094 95.84765625 276.71992188 96.4453125 277.05859375 C103.79108417 281.53151412 107.91962126 286.56244503 111.0625 294.5625 C112.70331907 303.75108677 111.43451305 311.05901194 106.9375 319.25 C102.13936439 325.24766951 96.35573972 330.35082927 88.45864105 331.34234238 C85.88123991 331.45113548 83.31891886 331.46793426 80.73925781 331.45068359 C79.27657722 331.45856903 79.27657722 331.45856903 77.78434753 331.46661377 C74.56960877 331.47978278 71.35536861 331.47107814 68.140625 331.4609375 C65.88686021 331.46296107 63.63309606 331.46587486 61.3793335 331.46963501 C56.65175147 331.47405585 51.92433956 331.46764214 47.19677734 331.45361328 C41.18901398 331.43663963 35.18165626 331.44628876 29.17390823 331.46433067 C24.51335714 331.47527616 19.85289887 331.47167135 15.19234467 331.4639473 C12.98076071 331.4619687 10.76916786 331.46432058 8.5575943 331.47138596 C-32.31636526 331.57320046 -70.18520877 319.99131086 -99.9375 290.9375 C-124.25256026 266.41346298 -128.4671278 237.4849271 -128.48046875 204.140625 C-128.48369158 202.22694882 -128.48705638 200.31327287 -128.49055481 198.39959717 C-128.49650845 194.40571523 -128.49839859 190.41185481 -128.49780273 186.41796875 C-128.49770129 181.34742158 -128.51135273 176.27701496 -128.52857494 171.20650101 C-128.53979485 167.25807077 -128.54171891 163.30967347 -128.54119301 159.36122894 C-128.54235816 157.49408229 -128.5466955 155.62693437 -128.55452538 153.75980377 C-128.67071216 123.19727885 -128.67071216 123.19727885 -123.6875 110.3125 C-123.42662598 109.61406982 -123.16575195 108.91563965 -122.89697266 108.19604492 C-114.95176442 87.84487519 -99.53433843 73.4469734 -82.625 60.4375 C-68.32154358 49.37059212 -56.05863731 35.85521793 -49.9375 18.5625 C-45.94957363 7.88190225 -40.41354222 1.86129262 -30.046875 -2.87890625 C-19.89342251 -6.80974286 -9.34587203 -5.46645345 0 0 Z " fill="#FEDCAF" transform="translate(243.3125,180.9375)"/>
<path d="M0 0 C23.2966383 13.0638111 42.57987731 33.94068118 51.6484375 59.23046875 C53.8715068 67.62255537 54.55416251 78.35335415 50.29614258 86.11035156 C47.02658734 90.74100457 42.94895126 94.66527374 38.91210938 98.62084961 C37.3341063 100.16976619 35.77575768 101.73664971 34.21875 103.30664062 C27.87573837 109.61046524 22.78486595 114.66069883 13.49438477 114.87451172 C12.74084717 114.86822754 11.98730957 114.86194336 11.2109375 114.85546875 C10.42066162 114.85047363 9.63038574 114.84547852 8.81616211 114.84033203 C-13.20478223 114.19650968 -32.1574425 98.52976287 -46.734375 83.3125 C-60.12332678 68.77867515 -69.43272318 50.57080728 -69.265625 30.546875 C-68.47096163 23.66337203 -64.73025516 19.68172583 -59.91455078 14.96777344 C-57.96009671 13.02917105 -56.06246591 11.04055837 -54.16015625 9.05078125 C-52.66286682 7.50514474 -51.1641578 5.96088221 -49.6640625 4.41796875 C-48.94790771 3.671521 -48.23175293 2.92507324 -47.49389648 2.15600586 C-33.86340944 -11.61268638 -16.0243408 -8.0121704 0 0 Z " fill="#FBC838" transform="translate(231.2890625,6.64453125)"/>
<path d="M0 0 C2.40357996 3.60536994 2.51043834 6.62764559 2.875 10.8125 C4.83582155 29.2095626 11.70329712 46.03503546 24 60 C24.64066406 60.78246094 25.28132813 61.56492187 25.94140625 62.37109375 C46.6818627 86.85476334 81.25043129 102.49550866 112.8449707 105.52124023 C122.62921838 106.30541461 132.44823826 106.22702917 142.2578125 106.2734375 C143.31551723 106.27876118 144.37322197 106.28408485 145.46297836 106.28956985 C151.05066956 106.31613675 156.63833957 106.33557218 162.22607422 106.35009766 C166.82913913 106.36347581 171.43176488 106.39142407 176.03466797 106.43212891 C181.62472674 106.48153386 187.21438544 106.50622567 192.80465317 106.51332474 C194.92324082 106.52001338 197.04182035 106.53517267 199.16028214 106.55921555 C216.24785595 106.76545132 216.24785595 106.76545132 230.875 98.625 C233.35856304 95.55706918 235.15418761 92.48653451 237 89 C237.66 89 238.32 89 239 89 C241.38821969 93.77643938 240.28466687 99.76655732 238.75 104.6875 C235.70153282 112.81674582 230.66622325 118.57542165 222.99212646 122.56289673 C218.387574 124.4883177 213.98225752 124.42115475 209.05175781 124.38818359 C207.58907722 124.39606903 207.58907722 124.39606903 206.09684753 124.40411377 C202.88210877 124.41728278 199.66786861 124.40857814 196.453125 124.3984375 C194.19936021 124.40046107 191.94559606 124.40337486 189.6918335 124.40713501 C184.96425147 124.41155585 180.23683956 124.40514214 175.50927734 124.39111328 C169.50151398 124.37413963 163.49415626 124.38378876 157.48640823 124.40183067 C152.82585714 124.41277616 148.16539887 124.40917135 143.50484467 124.4014473 C141.29326071 124.3994687 139.08166786 124.40182058 136.8700943 124.40888596 C95.99613474 124.51070046 58.12729123 112.92881086 28.375 83.875 C7.33990502 62.65911806 -0.07783086 37.18714817 -0.0625 7.6875 C-0.05027982 5.12479209 -0.02762093 2.56260868 0 0 Z " fill="#E2BE91" transform="translate(115,388)"/>
<path d="M0 0 C0 3 0 3 -0.984375 4.734375 C-4.09685348 11.67759622 -2.65864365 22.96620976 0 30 C0.36867187 31.02222656 0.73734375 32.04445312 1.1171875 33.09765625 C9.49074511 54.45732439 26.34167333 72.50277388 46 84 C46.90878906 84.54785156 47.81757813 85.09570312 48.75390625 85.66015625 C59.76587582 92.03550705 72.24025352 95.50171948 85.00976562 92.53271484 C86.6835979 92.0570605 88.34354826 91.53303768 90 91 C86.07416359 95.82317044 81.85242475 100.31362549 77.5 104.75 C76.68172729 105.600177 76.68172729 105.600177 75.84692383 106.4675293 C70.72530669 111.63215297 66.16047533 114.34926666 58.78344727 114.51904297 C58.02990967 114.51275879 57.27637207 114.50647461 56.5 114.5 C55.70972412 114.49500488 54.91944824 114.49000977 54.10522461 114.48486328 C32.08428027 113.84104093 13.13162 98.17429412 -1.4453125 82.95703125 C-14.83426428 68.4232064 -24.14366068 50.21533853 -23.9765625 30.19140625 C-23.09329923 22.54043657 -18.30090864 18.18985609 -13 13 C-11.83686749 11.82848274 -10.6755027 10.65520857 -9.515625 9.48046875 C-6.36473103 6.29869628 -3.1884593 3.1441067 0 0 Z " fill="#E2A91B" transform="translate(186,7)"/>
<path d="M0 0 C11.65499803 8.74124852 18.71489138 27.53840129 23.3125 41 C23.54267822 41.66201416 23.77285645 42.32402832 24.01000977 43.00610352 C28.18241082 55.89357475 29.55996805 68.84495284 29.4375 82.3125 C29.43445862 83.02889648 29.43141724 83.74529297 29.42828369 84.48339844 C29.355998 96.04396818 28.42378816 106.91269827 25 118 C24.79101074 118.70930664 24.58202148 119.41861328 24.36669922 120.14941406 C16.64628671 145.86099011 0.10257099 172.4429541 -23 187 C-26.81474514 187.41691204 -29.90964482 186.85183998 -33 184.4375 C-34.45884625 180.88156227 -34.86769443 177.72319029 -34 174 C-31.86901065 171.04660883 -29.22012838 168.82907221 -26.4375 166.5 C-3.38147355 146.46045276 9.63960732 119.45562221 12 89 C13.54918393 63.5214571 6.37691432 38.31118758 -8.5 17.5625 C-11.45682057 13.27598497 -13.14196188 10.1242075 -12.5859375 4.8515625 C-12 3 -12 3 -9.9375 0.375 C-6.0355838 -1.45142886 -4.10534415 -1.24626519 0 0 Z " fill="#F2F1F1" transform="translate(367,62)"/>
<path d="M0 0 C8.49945686 2.83315229 12.6823403 12.80493863 16.65039062 20.35888672 C19.04039049 25.15040144 20.86769552 30.11602399 22.5625 35.1875 C23.00722656 36.486875 23.00722656 36.486875 23.4609375 37.8125 C31.23232885 63.05028577 27.77631179 90.59715401 16.5625 114.1875 C9.87700682 126.51821252 -2.20627707 146.67774283 -16.4375 151.125 C-20.08917723 151.20107661 -21.58042819 150.40966696 -24.4375 148.1875 C-26.79836122 144.64620816 -27.01019578 143.35999782 -26.4375 139.1875 C-23.90600079 135.46936053 -21.04996225 132.82203428 -17.625 129.9375 C-1.51181362 116.06141642 7.77687401 95.14380497 9.5625 74.1875 C10.88392674 52.54913715 4.98106682 32.76993992 -7.375 14.9375 C-9.23557757 11.99911213 -9.43947909 11.12812715 -9.5625 7.4375 C-7.75601289 2.21875945 -5.55584498 0.30304609 0 0 Z " fill="#F2F1F1" transform="translate(311.4375,49.8125)"/>
<path d="M0 0 C0 0.33 0 0.66 0 1 C-0.90621094 1.14695313 -1.81242187 1.29390625 -2.74609375 1.4453125 C-13.21168234 3.37230976 -21.23696096 6.36012954 -27.49609375 15.296875 C-29.50786292 18.91283412 -31.02958239 22.68614259 -32.625 26.5 C-42.21273733 49.13499155 -60.23105542 64.35739203 -80 78 C-100.67967521 92.41492073 -115.98287438 106.7085045 -122 132 C-122.33 132 -122.66 132 -123 132 C-122.90767028 110.62566881 -110.50490396 91.77076909 -96 77 C-90.42855455 71.73426474 -84.38344114 67.0457769 -78.3125 62.375 C-64.00904358 51.30809212 -51.74613731 37.79271793 -45.625 20.5 C-41.63707363 9.81940225 -36.10104222 3.79879262 -25.734375 -0.94140625 C-16.85835535 -4.37769386 -8.72326178 -3.53987435 0 0 Z " fill="#E3BF92" transform="translate(239,179)"/>
<path d="M0 0 C0.99 0.495 0.99 0.495 2 1 C2.54235308 10.61170174 2.18100396 18.32367227 -3.66015625 26.25390625 C-9.558811 32.83084573 -16.58652917 35.78081123 -25.35620117 36.39648438 C-29.48362832 36.58447773 -33.6045155 36.60761335 -37.7355957 36.57641602 C-40.32565994 36.56242893 -42.91218575 36.5968642 -45.50195312 36.63476562 C-47.16406338 36.63571599 -48.82617812 36.63386244 -50.48828125 36.62890625 C-51.25400955 36.64216446 -52.01973785 36.65542267 -52.80867004 36.66908264 C-56.78075042 36.60040106 -59.30963127 36.15921478 -62.48901367 33.67944336 C-65 31 -65 31 -65.6875 27.5 C-64.81332747 23.04966711 -63.54803619 21.78218245 -60 19 C-57.12123001 18.51549374 -54.82305661 18.32334118 -51.953125 18.36328125 C-50.79716827 18.34771431 -50.79716827 18.34771431 -49.61785889 18.33183289 C-47.16145013 18.30223218 -44.70655398 18.30550471 -42.25 18.3125 C-22.85201481 18.70184067 -22.85201481 18.70184067 -6 10 C-3.53710763 6.84244568 -1.67497189 3.62910576 0 0 Z " fill="#E3BF92" transform="translate(364,307)"/>
<path d="M0 0 C2.88169227 4.32253841 2.56141979 7.92616863 2 13 C0.04444492 21.12222024 -3.19326259 27.78993536 -10.24609375 32.5 C-19.04131347 37.58360811 -27.28444852 37.28221937 -37.20751953 37.35009766 C-38.98239241 37.36666704 -40.75719829 37.39397026 -42.53173828 37.43212891 C-45.10223687 37.48704389 -47.67118051 37.50878941 -50.2421875 37.5234375 C-51.02987518 37.54610687 -51.81756287 37.56877625 -52.62911987 37.59213257 C-56.67188978 37.57671691 -59.26743493 37.21264252 -62.51220703 34.68994141 C-65 32 -65 32 -65.5625 28.4375 C-64.99034286 24.94098417 -64.52384018 23.43036462 -62 21 C-58.23799775 19.74599925 -54.73333794 19.88391008 -50.81640625 19.89453125 C-49.14907573 19.88105873 -47.48175719 19.86603262 -45.81445312 19.84960938 C-43.20115931 19.82693596 -40.5892072 19.81237144 -37.97583008 19.82495117 C-26.33517057 19.86602932 -16.08731812 19.47899787 -6.98901367 11.16162109 C-3.8922616 7.84509952 -1.82506365 4.15708942 0 0 Z " fill="#E3BF92" transform="translate(373,362)"/>
<path d="M0 0 C0.99 0.495 0.99 0.495 2 1 C2.54436444 11.63022784 1.80650837 18.50171013 -4.25 27.25 C-12.31181808 35.31181808 -20.98884883 37.08748298 -32.1628418 37.13635254 C-35.15556896 37.11037917 -38.1451799 37.03820921 -41.13647461 36.94335938 C-43.45758146 36.87440342 -45.77775908 36.83884312 -48.09960938 36.8046875 C-49.58599253 36.76503248 -51.07232547 36.7234369 -52.55859375 36.6796875 C-53.59142738 36.66843338 -53.59142738 36.66843338 -54.64512634 36.6569519 C-57.96666826 36.52214305 -59.7468099 36.19557567 -62.40649414 34.14111328 C-64.48925475 31.34261312 -64.92893751 29.48206211 -65 26 C-63.39588152 22.47093933 -62.25840638 21.17227092 -59 19 C-56.07364872 18.81813427 -53.23459561 18.74711143 -50.30859375 18.76171875 C-48.54100806 18.74628561 -46.77342981 18.72998102 -45.00585938 18.71289062 C-42.23021997 18.69651589 -39.45512655 18.68745475 -36.67944336 18.69458008 C-20.6601641 18.97449767 -20.6601641 18.97449767 -7.12133789 11.22558594 C-3.97588238 7.86977655 -1.85200672 4.21845976 0 0 Z " fill="#E2BE91" transform="translate(364,419)"/>
<path d="M0 0 C1.29873047 0.00966797 2.59746094 0.01933594 3.93554688 0.02929688 C5.30729764 0.0543629 6.67904243 0.07975774 8.05078125 0.10546875 C9.43423049 0.12051855 10.81769526 0.13420645 12.20117188 0.14648438 C15.58893332 0.18189652 18.97591264 0.23128821 22.36328125 0.29296875 C20.54361086 5.16046895 18.62283422 9.15231425 14.36328125 12.29296875 C10.76048502 13.20042625 7.36861458 13.09563083 3.67578125 12.91796875 C2.25168945 12.90830078 2.25168945 12.90830078 0.79882812 12.8984375 C-6.05796128 12.73344752 -6.05796128 12.73344752 -8.40551758 10.94677734 C-10.31794723 8.37790991 -10.02420115 6.39282798 -9.63671875 3.29296875 C-7.13447205 -0.47445268 -4.25628395 -0.05575918 0 0 Z " fill="#E2BE91" transform="translate(210.63671875,273.70703125)"/>
<path d="M0 0 C1.99732292 2.99598439 2.31106679 4.02492507 2.6328125 7.44921875 C2.71660156 8.29677734 2.80039063 9.14433594 2.88671875 10.01757812 C2.96535156 10.89865234 3.04398437 11.77972656 3.125 12.6875 C3.21136719 13.58017578 3.29773438 14.47285156 3.38671875 15.39257812 C3.59866378 17.5944515 3.80279012 19.79676609 4 22 C3.67 22 3.34 22 3 22 C2.67 24.64 2.34 27.28 2 30 C1.67 30 1.34 30 1 30 C0.0232751 19.97112823 -0.10849626 10.06604235 0 0 Z " fill="#EDC99C" transform="translate(115,388)"/>
<path d="M0 0 C0.66 0.33 1.32 0.66 2 1 C-3.94 6.94 -9.88 12.88 -16 19 C-16 14.80130728 -14.19810866 13.66463027 -11.375 10.625 C-10.9207666 10.13475342 -10.4665332 9.64450684 -9.99853516 9.1394043 C-6.85830473 5.79321137 -3.64356736 2.78061719 0 0 Z " fill="#E9C597" transform="translate(151,249)"/>
<path d="M0 0 C1.1171875 1.546875 1.1171875 1.546875 2 4 C1.3203125 7.453125 1.3203125 7.453125 0.125 11.25 C-0.07480469 11.8996875 -0.27460937 12.549375 -0.48046875 13.21875 C-0.97391984 14.81659163 -1.48523172 16.40889803 -2 18 C-2.33 18 -2.66 18 -3 18 C-2.57045059 11.74892565 -1.98598493 5.95795479 0 0 Z " fill="#ECC99C" transform="translate(119,293)"/>
</svg>
