<?xml version="1.0" encoding="UTF-8"?>
<svg version="1.1" xmlns="http://www.w3.org/2000/svg" width="512" height="512">
<path d="M0 0 C4.12466769 0.01709116 8.24875473 0.00693112 12.3734026 -0.01031685 C29.42058792 -0.07091669 46.16574059 0.03836799 62.953125 3.39111328 C64.12311035 3.61009277 65.2930957 3.82907227 66.49853516 4.0546875 C69.44179481 4.64278852 72.35090373 5.3008505 75.265625 6.01611328 C76.29776123 6.26844727 77.32989746 6.52078125 78.39331055 6.78076172 C124.82068218 18.63695835 168.90039276 47.05899667 197.953125 85.39111328 C198.68547363 86.34945068 198.68547363 86.34945068 199.43261719 87.32714844 C207.66040527 98.15831871 214.77769612 109.2717668 220.953125 121.39111328 C221.49211426 122.44830566 221.49211426 122.44830566 222.04199219 123.52685547 C231.5345288 142.39819323 237.63514264 161.73233038 241.953125 182.39111328 C242.13391602 183.21111816 242.31470703 184.03112305 242.50097656 184.87597656 C247.92248603 210.26437725 247.49450271 241.07344191 241.953125 266.39111328 C241.66308594 267.81520508 241.66308594 267.81520508 241.3671875 269.26806641 C235.2882389 298.81851099 224.00082609 327.98911743 205.953125 352.39111328 C205.2725 353.34115234 204.591875 354.29119141 203.890625 355.27001953 C172.46816532 398.30756699 127.51164953 429.8537832 75.578125 442.64111328 C74.63549805 442.87540039 73.69287109 443.1096875 72.72167969 443.35107422 C69.47706409 444.1081874 66.2252958 444.76320547 62.953125 445.39111328 C62.29034546 445.52455139 61.62756592 445.6579895 60.94470215 445.79547119 C44.06282026 449.08594271 27.02882049 448.85381434 9.90625 448.78222656 C5.78158137 448.76513539 1.65749336 448.7752961 -2.46715546 448.79254246 C-19.51198893 448.85314063 -36.26324273 448.75398009 -53.046875 445.39111328 C-54.2328125 445.16681641 -55.41875 444.94251953 -56.640625 444.71142578 C-59.62992999 444.10697073 -62.58591696 443.43339094 -65.546875 442.70361328 C-66.5874707 442.44870117 -67.62806641 442.19378906 -68.70019531 441.93115234 C-114.92061282 430.14726887 -159.15162049 401.5154541 -188.046875 363.39111328 C-188.53510742 362.75222168 -189.02333984 362.11333008 -189.52636719 361.45507812 C-197.75415527 350.62390786 -204.87144612 339.51045976 -211.046875 327.39111328 C-211.40620117 326.68631836 -211.76552734 325.98152344 -212.13574219 325.25537109 C-221.6282788 306.38403333 -227.72889264 287.04989618 -232.046875 266.39111328 C-232.22766602 265.5711084 -232.40845703 264.75110352 -232.59472656 263.90625 C-238.01623603 238.51784931 -237.58825271 207.70878465 -232.046875 182.39111328 C-231.75683594 180.96702148 -231.75683594 180.96702148 -231.4609375 179.51416016 C-219.17643709 119.79783874 -183.69135578 68.96040284 -133.046875 35.39111328 C-112.26146395 22.00032773 -89.67884753 12.04376885 -65.671875 6.14111328 C-64.72940918 5.90690674 -63.78694336 5.6727002 -62.81591797 5.43139648 C-59.5711508 4.67410312 -56.31923093 4.01905662 -53.046875 3.39111328 C-52.38409546 3.25767517 -51.72131592 3.12423706 -51.03845215 2.98675537 C-34.15657026 -0.30371615 -17.12257049 -0.07158778 0 0 Z M-31.0078125 163.76220703 C-45.68514145 176.21001034 -55.01520638 193.40682676 -58.046875 212.39111328 C-59.86190087 234.6161651 -56.52859572 255.77469847 -41.83984375 273.31689453 C-41.24816406 274.00138672 -40.65648437 274.68587891 -40.046875 275.39111328 C-39.17482422 276.49519531 -39.17482422 276.49519531 -38.28515625 277.62158203 C-28.72186295 289.26995395 -11.75601338 300.14499309 3.4375 302.43408203 C19.53052305 302.1592012 35.23865302 290.66315823 46.4921875 279.98095703 C63.0482228 262.48617746 68.66323694 241.84281014 68.26171875 218.42626953 C67.47273997 197.45121948 57.19610404 178.85198951 42.140625 164.57861328 C17.40949187 143.55136281 -6.02497746 143.37521749 -31.0078125 163.76220703 Z " fill="#A4CC3C" transform="translate(251.046875,31.60888671875)"/>
<path d="M0 0 C1.06269901 -0.00303605 1.06269901 -0.00303605 2.14686668 -0.00613344 C9.59782345 0.09474234 15.3010405 0.96295918 20.79832458 6.39204407 C22.05980468 7.87861025 23.29297903 9.39026863 24.48022461 10.93676758 C25.26913086 11.81204102 26.05803711 12.68731445 26.87084961 13.58911133 C38.21048543 27.52542846 48.31357209 41.909623 56.48022461 57.93676758 C56.83955078 58.6415625 57.19887695 59.34635742 57.5690918 60.07250977 C67.06162841 78.94384753 73.16224225 98.27798468 77.48022461 118.93676758 C77.66101563 119.75677246 77.84180664 120.57677734 78.02807617 121.42163086 C83.44958564 146.81003155 83.02160232 177.61909621 77.48022461 202.93676758 C77.19018555 204.36085938 77.19018555 204.36085938 76.89428711 205.8137207 C70.81533851 235.36416528 59.5279257 264.53477173 41.48022461 288.93676758 C40.79959961 289.88680664 40.11897461 290.8368457 39.41772461 291.81567383 C35.25400753 297.51847919 30.85580183 302.98836358 26.29272461 308.37426758 C25.56230957 309.24317627 25.56230957 309.24317627 24.81713867 310.12963867 C24.34115234 310.68345215 23.86516602 311.23726563 23.37475586 311.80786133 C22.9607251 312.29182373 22.54669434 312.77578613 22.12011719 313.27441406 C21.30837036 314.09727905 21.30837036 314.09727905 20.48022461 314.93676758 C19.77181427 315.7713147 19.06340393 316.60586182 18.33352661 317.46569824 C11.39715007 323.12154571 -1.33219519 321.46326225 -9.80831909 320.69802856 C-24.12479336 318.92601599 -32.97323379 308.56095504 -42.26061368 298.44053531 C-44.94338012 295.55411214 -47.72070428 292.76133476 -50.48802185 289.95631409 C-55.68596571 284.6599165 -60.79710116 279.2877118 -65.88004583 273.88110644 C-71.68212984 267.71805758 -77.57827103 261.64846521 -83.48297417 255.58392417 C-95.60070161 243.13402627 -107.5988401 230.57517015 -119.51977539 217.93676758 C-119.11424942 217.39815094 -118.70872345 216.8595343 -118.29090881 216.30459595 C-117.75549973 215.59233856 -117.22009064 214.88008118 -116.66845703 214.14624023 C-116.13918106 213.4426236 -115.60990509 212.73900696 -115.06459045 212.0140686 C-100.30521068 192.16724327 -94.89067604 171.18401949 -97.80834961 146.49487305 C-100.09466488 132.7493615 -106.49851487 120.72839574 -115.3190918 110.10986328 C-118.51977539 106.22473727 -118.51977539 106.22473727 -118.51977539 102.93676758 C-117.03460026 100.99026966 -117.03460026 100.99026966 -114.90748596 98.74165344 C-114.10534668 97.88769989 -113.3032074 97.03374634 -112.47676086 96.15391541 C-111.58418076 95.22027664 -110.69160065 94.28663788 -109.77197266 93.32470703 C-108.83003512 92.3296001 -107.88852727 91.33408629 -106.94741821 90.3381958 C-98.29285515 81.20406379 -89.52059737 72.18055943 -80.72328281 63.18407917 C-74.23568067 56.54656932 -67.80692514 49.86166526 -61.44686657 43.10179931 C-56.95572337 38.33833831 -52.40072849 33.64180972 -47.79702419 28.98708504 C-45.05744216 26.21344738 -42.35205476 23.42020081 -39.71365547 20.54986 C-27.96087351 7.81087396 -17.9709771 -0.08747242 0 0 Z " fill="#F99A37" transform="translate(415.519775390625,95.063232421875)"/>
<path d="M0 0 C4.12466769 0.01709116 8.24875473 0.00693112 12.3734026 -0.01031685 C29.42058792 -0.07091669 46.16574059 0.03836799 62.953125 3.39111328 C64.12311035 3.61009277 65.2930957 3.82907227 66.49853516 4.0546875 C69.44179481 4.64278852 72.35090373 5.3008505 75.265625 6.01611328 C76.29776123 6.26844727 77.32989746 6.52078125 78.39331055 6.78076172 C112.17166485 15.40676824 141.97458265 32.21663607 168.453125 54.64111328 C169.0411792 55.13667725 169.6292334 55.63224121 170.23510742 56.14282227 C171.07005737 56.86127319 171.07005737 56.86127319 171.921875 57.59423828 C172.41107422 58.01350586 172.90027344 58.43277344 173.40429688 58.86474609 C175.45528995 60.88599589 177.16750228 63.13506241 178.953125 65.39111328 C178.11581596 65.30519393 177.27850693 65.21927458 176.41582489 65.13075161 C163.1936437 64.01763968 149.54178593 62.96650168 138.6075511 71.64260846 C133.12299995 76.32615266 128.19112267 81.5872731 123.31368065 86.88734555 C120.62628599 89.77190529 117.84743213 92.56584774 115.07824707 95.37156677 C109.87538942 100.66983516 104.75646348 106.04172871 99.6648736 111.44677442 C93.85342611 117.60779131 87.95097348 123.67836319 82.04024982 129.74395669 C69.90918242 142.19689276 57.89379805 154.75554995 45.953125 167.39111328 C42.32341512 165.64426683 39.2251117 163.4988684 35.953125 161.14111328 C26.21647557 154.2878138 14.0403708 146.09049862 1.640625 147.82861328 C-17.37906743 152.2280908 -34.53602106 164.814147 -45.01171875 181.07861328 C-53.87137399 195.49893505 -57.5211193 209.56693078 -58.046875 226.39111328 C-58.376875 225.73111328 -58.706875 225.07111328 -59.046875 224.39111328 C-69.606875 224.39111328 -80.166875 224.39111328 -91.046875 224.39111328 C-91.046875 205.34232563 -85.52675265 188.04943111 -73.046875 173.39111328 C-72.263125 172.40111328 -71.479375 171.41111328 -70.671875 170.39111328 C-70.135625 169.73111328 -69.599375 169.07111328 -69.046875 168.39111328 C-70.50837527 165.02459769 -72.36587268 162.82488818 -74.9564209 160.24105835 C-75.77245285 159.42227707 -76.5884848 158.60349579 -77.429245 157.75990295 C-78.32593399 156.87040451 -79.22262299 155.98090607 -80.14648438 155.06445312 C-81.09961686 154.11188498 -82.05230877 153.15887584 -83.0045929 152.20545959 C-85.58891003 149.62056869 -88.17934749 147.04189095 -90.77092171 144.4642787 C-93.48151459 141.76619595 -96.18643759 139.06244114 -98.89196777 136.35928345 C-104.01729424 131.24017354 -109.14769651 126.12618212 -114.27994108 121.01400912 C-120.11474298 115.20153527 -125.94389225 109.3834068 -131.77255917 103.5647819 C-143.27305867 92.08433083 -154.77998829 80.61034846 -166.29148102 69.14092064 C-167.54434031 67.89204863 -168.79600776 66.64198052 -170.046875 65.39111328 C-142.23591187 36.34410735 -104.58967741 15.70993262 -65.671875 6.14111328 C-64.72940918 5.90690674 -63.78694336 5.6727002 -62.81591797 5.43139648 C-59.5711508 4.67410312 -56.31923093 4.01905662 -53.046875 3.39111328 C-52.38409546 3.25767517 -51.72131592 3.12423706 -51.03845215 2.98675537 C-34.15657026 -0.30371615 -17.12257049 -0.07158778 0 0 Z " fill="#9A5FA9" transform="translate(251.046875,31.60888671875)"/>
<path d="M0 0 C2.7828234 1.08654995 4.27692765 2.59969826 6.38599777 4.71679783 C7.22449768 5.55117374 8.06299759 6.38554966 8.92690659 7.24520969 C9.8382486 8.16733753 10.74959061 9.08946537 11.68854904 10.03953648 C12.66385165 11.01568536 13.63981545 11.991174 14.61639023 12.96605015 C17.26539052 15.61418909 19.90503417 18.27148121 22.54311275 20.93049455 C25.30174239 23.70786765 28.06886008 26.47675727 30.83509445 29.24655247 C36.07193321 34.49271854 41.30107719 39.74648562 46.52750993 45.00301641 C52.47803833 50.98706744 58.43707926 56.9626104 64.39685583 62.93744862 C76.65626282 75.22822017 88.90491951 87.52965073 101.14655685 99.83812046 C99.46772017 103.3564592 97.40576292 106.10592428 94.95905685 109.15062046 C83.8170793 123.6462274 79.78523558 139.81265445 78.14655685 157.83812046 C88.70655685 157.83812046 99.26655685 157.83812046 110.14655685 157.83812046 C111.57610211 160.69721097 111.60917473 163.47552194 111.95905685 166.65062046 C113.95274988 182.67136799 119.81599983 196.43144665 130.14655685 208.83812046 C133.14655685 212.57267424 133.14655685 212.57267424 133.14655685 214.83812046 C132.30924782 214.75220111 131.47193878 214.66628176 130.60925674 214.57775879 C117.38707555 213.46464686 103.73521779 212.41350886 92.80098295 221.08961564 C87.3164318 225.77315984 82.38455452 231.03428028 77.5071125 236.33435273 C74.81971785 239.21891247 72.04086399 242.01285492 69.27167892 244.81857395 C64.06882127 250.11684234 58.94989533 255.48873588 53.85830545 260.8937816 C48.04685797 267.05479849 42.14440534 273.12537037 36.23368168 279.19096386 C24.10261428 291.64389993 12.08722991 304.20255713 0.14655685 316.83812046 C-0.97589181 315.88290635 -2.09736815 314.92654962 -3.21843338 313.96971226 C-3.84305969 313.43726398 -4.467686 312.90481571 -5.11124039 312.35623264 C-36.66596833 284.86022698 -54.51996611 239.70847622 -62.85344315 199.83812046 C-63.03423416 199.01811558 -63.21502518 198.19811069 -63.40129471 197.35325718 C-68.82280417 171.96485649 -68.39482086 141.15579183 -62.85344315 115.83812046 C-62.66008377 114.88872593 -62.4667244 113.9393314 -62.26750565 112.96116734 C-53.65820618 71.11040602 -34.11967542 35.56965846 -5.85344315 3.83812046 C-5.15863846 3.02343296 -4.46383377 2.20874546 -3.7479744 1.36937046 C-1.85344315 -0.16187954 -1.85344315 -0.16187954 0 0 Z " fill="#00D1D1" transform="translate(81.85344314575195,98.16187953948975)"/>
<path d="M0 0 C63.39042496 0 63.39042496 0 86.3125 5.625 C87.34463623 5.87733398 88.37677246 6.12966797 89.44018555 6.38964844 C123.21853985 15.01565496 153.02145765 31.82552279 179.5 54.25 C180.0880542 54.74556396 180.6761084 55.24112793 181.28198242 55.75170898 C182.11693237 56.47015991 182.11693237 56.47015991 182.96875 57.203125 C183.45794922 57.62239258 183.94714844 58.04166016 184.45117188 58.47363281 C186.50216495 60.49488261 188.21437728 62.74394913 190 65 C189.16269096 64.91408065 188.32538193 64.8281613 187.46269989 64.73963833 C174.2405187 63.6265264 160.58866093 62.5753884 149.6544261 71.25149518 C144.16987495 75.93503938 139.23799767 81.19615982 134.36055565 86.49623227 C131.67316099 89.38079201 128.89430713 92.17473446 126.12512207 94.98045349 C120.92226442 100.27872188 115.80333848 105.65061542 110.7117486 111.05566114 C104.90030111 117.21667803 98.99784848 123.28724991 93.08712482 129.3528434 C80.95605742 141.80577947 68.94067305 154.36443667 57 167 C53.37029012 165.25315355 50.2719867 163.10775512 47 160.75 C32.15115433 150.31935629 18.18165265 146.42422035 0 144 C0 96.48 0 48.96 0 0 Z " fill="#FE6D90" transform="translate(240,32)"/>
<path d="M0 0 C9.74119417 6.80071925 20.24830462 12.695746 32 15 C32 15.66 32 16.32 32 17 C26.75103182 18.07671142 22.60877798 18 17 18 C17 65.52 17 113.04 17 162 C-41.56542105 162 -97.23179677 140.9289392 -139.40625 99.64453125 C-140.19515625 98.83048828 -140.19515625 98.83048828 -141 98 C-139.54169588 94.68534508 -137.70034053 92.39021042 -135.21640015 89.76728821 C-134.42689468 88.93023346 -133.63738922 88.09317871 -132.82395935 87.23075867 C-131.95570023 86.3209877 -131.0874411 85.41121674 -130.19287109 84.47387695 C-129.26894425 83.49973766 -128.34521786 82.52540821 -127.42167664 81.55090332 C-118.94703247 72.62736942 -110.37109388 63.80056141 -101.76973534 54.99929523 C-96.00070387 49.09309163 -90.26412878 43.16159438 -84.6015625 37.15307617 C-79.64855202 31.89749458 -74.64114599 26.70129087 -69.56375372 21.56566972 C-66.88549284 18.85312472 -64.23926817 16.12186344 -61.65662766 13.31786537 C-51.69322445 2.53780864 -42.55138286 -6.12485523 -27.26641273 -7.10945606 C-25.82984175 -7.16035177 -24.392794 -7.1993084 -22.95556641 -7.22583008 C-22.26572812 -7.23957023 -21.57588983 -7.25331038 -20.86514735 -7.2674669 C-12.11798398 -7.30379989 -6.29792354 -6.14878715 0 0 Z " fill="#77B341" transform="translate(223,318)"/>
<path d="M0 0 C2.7828234 1.08654995 4.27692765 2.59969826 6.38599777 4.71679783 C7.22449768 5.55117374 8.06299759 6.38554966 8.92690659 7.24520969 C9.8382486 8.16733753 10.74959061 9.08946537 11.68854904 10.03953648 C12.66385165 11.01568536 13.63981545 11.991174 14.61639023 12.96605015 C17.26539052 15.61418909 19.90503417 18.27148121 22.54311275 20.93049455 C25.30174239 23.70786765 28.06886008 26.47675727 30.83509445 29.24655247 C36.07193321 34.49271854 41.30107719 39.74648562 46.52750993 45.00301641 C52.47803833 50.98706744 58.43707926 56.9626104 64.39685583 62.93744862 C76.65626282 75.22822017 88.90491951 87.52965073 101.14655685 99.83812046 C99.46772017 103.3564592 97.40576292 106.10592428 94.95905685 109.15062046 C83.8170793 123.6462274 79.78523558 139.81265445 78.14655685 157.83812046 C30.62655685 157.83812046 -16.89344315 157.83812046 -65.85344315 157.83812046 C-65.85344315 98.73486086 -44.94438437 47.72142529 -5.85344315 3.83812046 C-5.15863846 3.02343296 -4.46383377 2.20874546 -3.7479744 1.36937046 C-1.85344315 -0.16187954 -1.85344315 -0.16187954 0 0 Z " fill="#6EA4D6" transform="translate(81.85344314575195,98.16187953948975)"/>
<path d="M0 0 C47.52 0 95.04 0 144 0 C144 15.13303743 144 15.13303743 143.1875 21.75 C143.09839355 22.50458496 143.00928711 23.25916992 142.91748047 24.03662109 C136.62460722 75.19949077 115.2674747 121.12623013 79 158 C75.59109215 156.52630723 73.37478178 154.62192589 70.76055908 152.00106812 C69.92205917 151.16531754 69.08355927 150.32956696 68.21965027 149.4684906 C67.30830826 148.54995804 66.39696625 147.63142548 65.45800781 146.68505859 C64.48249044 145.70897691 63.50653212 144.73333574 62.53016663 143.75810242 C59.88342897 141.1119385 57.24290245 138.45965413 54.6034441 135.80623198 C51.84302927 133.03331342 49.07694845 130.26605875 46.3114624 127.49819946 C41.07663863 122.25715988 35.84693394 117.01104297 30.61904693 111.76308501 C24.66654735 105.7882296 18.70836677 99.81905321 12.74970102 93.85034823 C0.49346622 81.57320914 -11.75561142 69.28895352 -24 57 C-23.59447403 56.46138336 -23.18894806 55.92276672 -22.77113342 55.36782837 C-22.23572433 54.65557098 -21.70031525 53.9433136 -21.14868164 53.20947266 C-20.61940567 52.50585602 -20.0901297 51.80223938 -19.54481506 51.07730103 C-7.60343083 35.01981279 -3.28988993 19.73933957 0 0 Z " fill="#FED140" transform="translate(320,256)"/>
<path d="M0 0 C4.53458796 -0.22437063 9.06587695 -0.38662457 13.60473633 -0.49438477 C15.14437182 -0.53934116 16.68362965 -0.60053611 18.22192383 -0.67895508 C30.94906642 -1.31097482 30.94906642 -1.31097482 35.92529297 1.86987305 C38.20004328 4.12662174 40.1148455 6.41332848 42 9 C42.78890625 9.87527344 43.5778125 10.75054687 44.390625 11.65234375 C55.73026082 25.58866088 65.83334748 39.97285543 74 56 C74.53898926 57.05719238 74.53898926 57.05719238 75.08886719 58.13574219 C84.5814038 77.00707995 90.68201764 96.3412171 95 117 C95.18079102 117.82000488 95.36158203 118.64000977 95.54785156 119.48486328 C100.96936103 144.87326397 100.54137771 175.68232863 95 201 C94.70996094 202.4240918 94.70996094 202.4240918 94.4140625 203.87695312 C88.3351139 233.42739771 77.04770109 262.59800415 59 287 C58.319375 287.95003906 57.63875 288.90007812 56.9375 289.87890625 C52.77378292 295.58171161 48.37557722 301.05159601 43.8125 306.4375 C43.08208496 307.30640869 43.08208496 307.30640869 42.33691406 308.19287109 C41.86092773 308.74668457 41.38494141 309.30049805 40.89453125 309.87109375 C40.48050049 310.35505615 40.06646973 310.83901855 39.63989258 311.33764648 C33.23145624 317.83385655 33.23145624 317.83385655 28.47314453 318.47583008 C27.20583496 318.40775146 25.93852539 318.33967285 24.6328125 318.26953125 C23.95322479 318.24026047 23.27363708 318.21098969 22.57345581 318.18083191 C20.42192724 318.0825594 18.27446147 317.94816668 16.125 317.8125 C14.65897243 317.73913384 13.19282378 317.66814613 11.7265625 317.59960938 C8.14922768 317.42722543 4.57461289 317.22242177 1 317 C3.84120009 313.67607768 6.68645155 310.35738805 9.5703125 307.0703125 C30.83305545 282.55638562 46.80023245 254.16984182 56 223 C56.31662598 221.93048096 56.31662598 221.93048096 56.63964844 220.83935547 C69.50690499 176.71090072 68.08409463 129.35548156 53 86 C52.66597168 85.03320312 52.66597168 85.03320312 52.32519531 84.046875 C41.76317151 53.77602539 24.93426574 26.69942032 2.5703125 3.7109375 C0 1 0 1 0 0 Z " fill="#F4732D" transform="translate(398,97)"/>
<path d="M0 0 C10.56 0 21.12 0 32 0 C32.92027831 45.09363699 20.06199438 91.40992843 -7 128 C-8.0209375 129.42505859 -8.0209375 129.42505859 -9.0625 130.87890625 C-13.22621708 136.58171161 -17.62442278 142.05159601 -22.1875 147.4375 C-22.67444336 148.01677246 -23.16138672 148.59604492 -23.66308594 149.19287109 C-24.13907227 149.74668457 -24.61505859 150.30049805 -25.10546875 150.87109375 C-25.51949951 151.35505615 -25.93353027 151.83901855 -26.36010742 152.33764648 C-32.76854376 158.83385655 -32.76854376 158.83385655 -37.52685547 159.47583008 C-38.79416504 159.40775146 -40.06147461 159.33967285 -41.3671875 159.26953125 C-42.04677521 159.24026047 -42.72636292 159.21098969 -43.42654419 159.18083191 C-45.57807276 159.0825594 -47.72553853 158.94816668 -49.875 158.8125 C-51.34102757 158.73913384 -52.80717622 158.66814613 -54.2734375 158.59960938 C-57.85077232 158.42722543 -61.42538711 158.22242177 -65 158 C-62.15879991 154.67607768 -59.31354845 151.35738805 -56.4296875 148.0703125 C-35.16694455 123.55638562 -19.19976755 95.16984182 -10 64 C-9.68337402 62.93048096 -9.68337402 62.93048096 -9.36035156 61.83935547 C-3.41949526 41.46509718 -1.52513306 21.11722697 0 0 Z " fill="#F99B37" transform="translate(464,256)"/>
<path d="M0 0 C0 0.66 0 1.32 0 2 C-0.79921875 2.21914062 -1.5984375 2.43828125 -2.421875 2.6640625 C-24.17411706 8.94463943 -40.54475872 20.98996799 -52.17578125 40.52734375 C-59.01176509 53.54059778 -61.21739015 66.5217177 -62 81 C-62.33 80.34 -62.66 79.68 -63 79 C-73.56 79 -84.12 79 -95 79 C-95 60.05336471 -89.52388673 42.53665424 -77 28 C-76.4534375 27.30003906 -75.906875 26.60007813 -75.34375 25.87890625 C-57.61012215 4.20029763 -27.18726538 -5.48166001 0 0 Z " fill="#4B55A5" transform="translate(255,177)"/>
<path d="M0 0 C39.73280137 -0.63658666 39.73280137 -0.63658666 57 3 C57.9580957 3.19335938 58.91619141 3.38671875 59.90332031 3.5859375 C98.5869712 11.55130317 132.45150506 28.80215694 162.5 54.25 C163.0880542 54.74556396 163.6761084 55.24112793 164.28198242 55.75170898 C165.11693237 56.47015991 165.11693237 56.47015991 165.96875 57.203125 C166.45794922 57.62239258 166.94714844 58.04166016 167.45117188 58.47363281 C169.50359543 60.49629235 171.23140945 62.72868711 173 65 C168.4470327 65.19915402 163.89664605 65.34355091 159.34033203 65.43945312 C157.793984 65.47945879 156.24793428 65.53388691 154.70263672 65.60351562 C141.871976 66.16677252 141.871976 66.16677252 137.33251953 63.33740234 C135.34444844 61.32967981 133.67445651 59.27146508 132 57 C119.77555771 46.12201802 106.17129849 37.10534147 92 29 C91.42233887 28.66258789 90.84467773 28.32517578 90.24951172 27.97753906 C65.45575414 13.56665076 36.32488898 4.952027 7.875 1.875 C7.10929687 1.78863281 6.34359375 1.70226563 5.5546875 1.61328125 C3.70355139 1.40502844 1.85183537 1.20194028 0 1 C0 0.67 0 0.34 0 0 Z " fill="#E64277" transform="translate(257,32)"/>
<path d="M0 0 C1.53497804 0.05531891 3.07015082 0.10548396 4.60546875 0.15039062 C8.32443797 0.27019948 12.03592751 0.45912351 15.75 0.6875 C11.93177755 5.35021939 7.97231265 9.54141584 3.375 13.4375 C2.77486084 13.94772705 2.17472168 14.4579541 1.55639648 14.98364258 C-5.35166755 20.74970143 -12.69862708 25.80728437 -20.25 30.6875 C-20.85392578 31.0803418 -21.45785156 31.47318359 -22.08007812 31.87792969 C-46.09801306 47.34062874 -72.39538454 56.92541778 -100.25 62.6875 C-101.10722656 62.86829102 -101.96445312 63.04908203 -102.84765625 63.23535156 C-120.42511976 66.78329063 -138.41185773 65.98240782 -156.25 65.6875 C-156.25 65.3575 -156.25 65.0275 -156.25 64.6875 C-155.56824707 64.60298584 -154.88649414 64.51847168 -154.18408203 64.43139648 C-123.24548557 60.48986163 -94.76588786 52.43334275 -67.25 37.6875 C-66.64994141 37.36813477 -66.04988281 37.04876953 -65.43164062 36.71972656 C-51.94124447 29.47433932 -37.04094974 20.36596838 -26.75537109 8.90869141 C-18.54484388 -0.13230436 -11.7968217 -0.74772201 0 0 Z " fill="#78B341" transform="translate(414.25,414.3125)"/>
<path d="M0 0 C10.56 0 21.12 0 32 0 C33.42954525 2.85909051 33.46261788 5.63740148 33.8125 8.8125 C35.80619303 24.83324753 41.66944297 38.59332619 52 51 C55 54.73455378 55 54.73455378 55 57 C50.62636224 57.29972214 46.25833613 57.51566927 41.87744141 57.65917969 C40.392658 57.71904739 38.9085678 57.80059415 37.42626953 57.90527344 C25.22519406 58.74445732 25.22519406 58.74445732 19.88330078 54.55664062 C17.17839192 51.60922684 15.08038773 48.41100986 13 45 C12.52288574 44.24299805 12.04577148 43.48599609 11.55419922 42.70605469 C10.4652908 40.83788889 9.5247593 38.96521633 8.625 37 C8.30394287 36.3292041 7.98288574 35.6584082 7.65209961 34.96728516 C2.08860304 23.07681345 0 13.23097557 0 0 Z " fill="#289BC2" transform="translate(160,256)"/>
<path d="M0 0 C0 0.66 0 1.32 0 2 C-0.79921875 2.21914062 -1.5984375 2.43828125 -2.421875 2.6640625 C-16.12496114 6.62058737 -28.8011782 12.8011782 -39 23 C-41.3756852 23.0883967 -43.72208674 23.11530305 -46.09765625 23.09765625 C-47.16094398 23.09553383 -47.16094398 23.09553383 -48.24571228 23.09336853 C-50.51801712 23.08775443 -52.79022475 23.07519963 -55.0625 23.0625 C-56.59960796 23.05748681 -58.13671745 23.05292359 -59.67382812 23.04882812 C-63.44925642 23.03778042 -67.22461171 23.02050641 -71 23 C-69.15024385 18.87525015 -66.50564812 16.7504565 -62.875 14.1875 C-61.94989624 13.53382446 -61.94989624 13.53382446 -61.00610352 12.86694336 C-43.13921886 0.68467112 -21.34895206 -4.30450416 0 0 Z " fill="#643874" transform="translate(255,177)"/>
<path d="M0 0 C9.74119417 6.80071925 20.24830462 12.695746 32 15 C32 15.66 32 16.32 32 17 C11.55947514 21.0682598 -8.42108003 16.84827247 -26 6 C-30.54099909 2.93163529 -34.88264915 -0.38321749 -39 -4 C-39 -4.33 -39 -4.66 -39 -5 C-34.73309063 -5.29350328 -30.46634222 -5.54407466 -26.19482422 -5.75683594 C-24.74526747 -5.83487659 -23.29626818 -5.92418298 -21.84814453 -6.02539062 C-12.86771901 -6.64430348 -6.67905532 -6.75950036 0 0 Z " fill="#648D3D" transform="translate(223,318)"/>
</svg>
