<?xml version="1.0" encoding="UTF-8"?>
<svg version="1.1" xmlns="http://www.w3.org/2000/svg" width="512" height="512">
<path d="M0 0 C6.31059225 3.09792711 9.73369143 8.28214889 13.14453125 14.26171875 C13.73105469 15.28458984 14.31757813 16.30746094 14.921875 17.36132812 C15.54578125 18.45896484 16.1696875 19.55660156 16.8125 20.6875 C17.47741412 21.84986717 18.14278737 23.01197181 18.80859375 24.17382812 C20.1900913 26.5854146 21.56961565 28.99811344 22.94775391 31.41162109 C26.11338555 36.95170955 29.30823887 42.47493981 32.5 48 C33.75013641 50.16658796 35.000136 52.33325488 36.25 54.5 C36.86875 55.5725 37.4875 56.645 38.125 57.75 C43.75 67.5 43.75 67.5 45.62524414 70.75048828 C46.87435518 72.91557071 48.12354129 75.08060982 49.37280273 77.24560547 C52.51202309 82.68615706 55.64990563 88.12747216 58.78515625 93.5703125 C64.80747329 104.02206199 70.84669337 114.46299548 76.9375 124.875 C82.35921178 134.14499777 87.70204915 143.45831752 93.01922607 152.78845215 C98.21248595 161.89885501 103.46364295 170.97380247 108.75927734 180.02514648 C113.2413721 187.68884844 117.69046822 195.37122062 122.125 203.0625 C123.06678101 204.69566162 123.06678101 204.69566162 124.02758789 206.36181641 C125.18547134 208.37104301 126.34023817 210.38207036 127.49121094 212.39526367 C128.40410748 213.97126582 129.3347922 215.53739312 130.29785156 217.08325195 C133.77877931 222.72547446 133.8547474 227.54890643 133 234 C129.04748174 243.27982548 116.40821375 248.17574206 108.0625 252.9375 C106.3326544 253.92992138 104.60281157 254.92234765 102.87313843 255.91506958 C101.09060128 256.93764091 99.30731803 257.95890134 97.52392578 258.97998047 C92.00810212 262.13969911 86.50479254 265.32111722 81 268.5 C78.83339031 269.75009875 76.6667235 271.00009851 74.5 272.25 C73.4275 272.86875 72.355 273.4875 71.25 274.125 C-16.5 324.75 -16.5 324.75 -19.75048828 326.62524414 C-21.91557071 327.87435518 -24.08060982 329.12354129 -26.24560547 330.37280273 C-31.68615706 333.51202309 -37.12747216 336.64990563 -42.5703125 339.78515625 C-44.75521193 341.04426459 -46.94010779 342.30337914 -49.125 343.5625 C-50.18525391 344.17295166 -51.24550781 344.78340332 -52.33789062 345.41235352 C-57.87215172 348.60282634 -63.39409569 351.81287582 -68.8984375 355.0546875 C-70.00687012 355.70622803 -71.11530273 356.35776855 -72.25732422 357.02905273 C-74.37837494 358.2773778 -76.49728476 359.52934949 -78.61376953 360.78540039 C-79.55591309 361.3396167 -80.49805664 361.89383301 -81.46875 362.46484375 C-82.29826172 362.955896 -83.12777344 363.44694824 -83.98242188 363.95288086 C-86 365 -86 365 -88 365 C-87.99631283 365.62837831 -87.99262566 366.25675663 -87.98882675 366.90417671 C-87.90044037 382.2029983 -87.83427332 397.50174142 -87.79275131 412.80075264 C-87.77213718 420.19929303 -87.7440388 427.59766285 -87.69824219 434.99609375 C-87.65833894 441.44553552 -87.63255883 447.89485375 -87.62364602 454.34441555 C-87.61843708 457.75860635 -87.60621886 461.17244375 -87.57707977 464.58652115 C-87.54807937 468.40050536 -87.54404279 472.21375545 -87.54589844 476.02783203 C-87.53151733 477.15640121 -87.51713623 478.2849704 -87.50231934 479.44773865 C-87.53390935 485.44090266 -87.70710009 489.42332228 -92 494 C-97.35772207 498.56364451 -101.72313339 498.56917186 -108.43786621 498.50793457 C-109.48823232 498.51417453 -110.53859843 498.5204145 -111.62079382 498.52684355 C-115.14000241 498.54279685 -118.65852065 498.53015956 -122.17773438 498.51757812 C-124.7008759 498.52299817 -127.22401426 498.53012017 -129.74714661 498.53881836 C-135.88861659 498.55517297 -142.02983097 498.55276737 -148.17130435 498.5411678 C-153.16302191 498.53213049 -158.15468468 498.53091075 -163.14640808 498.53526306 C-163.85713064 498.53587599 -164.5678532 498.53648893 -165.30011281 498.53712043 C-166.74397824 498.53839935 -168.18784365 498.5396962 -169.63170904 498.5410108 C-183.16761354 498.5524142 -196.70340965 498.5393067 -210.23929638 498.51780933 C-221.85115421 498.49993854 -233.46285209 498.50304271 -245.07470703 498.52148438 C-258.56250533 498.54289537 -272.05020865 498.55131558 -285.53802156 498.53903532 C-286.976545 498.53776114 -288.41506845 498.53650365 -289.85359192 498.53526306 C-290.56135406 498.53464596 -291.2691162 498.53402886 -291.99832568 498.53339306 C-296.98346002 498.52994083 -301.96853406 498.53576573 -306.95365906 498.54518127 C-313.66454133 498.55757781 -320.37507486 498.54873915 -327.08594322 498.52560425 C-329.55063563 498.52030976 -332.01535344 498.5218435 -334.48003578 498.53065491 C-337.84108012 498.54156412 -341.20115165 498.52790133 -344.56213379 498.50793457 C-346.02973971 498.5213189 -346.02973971 498.5213189 -347.52699423 498.53497362 C-353.1712584 498.46980855 -356.63702077 497.93572437 -361 494 C-365.67409554 488.8184934 -365.56842863 484.19537091 -365.50793457 477.56213379 C-365.51417453 476.51176768 -365.5204145 475.46140157 -365.52684355 474.37920618 C-365.54279685 470.85999759 -365.53015956 467.34147935 -365.51757812 463.82226562 C-365.52299817 461.2991241 -365.53012017 458.77598574 -365.53881836 456.25285339 C-365.55517297 450.11138341 -365.55276737 443.97016903 -365.5411678 437.82869565 C-365.53213049 432.83697809 -365.53091075 427.84531532 -365.53526306 422.85359192 C-365.53587599 422.14286936 -365.53648893 421.4321468 -365.53712043 420.69988719 C-365.53839935 419.25602176 -365.5396962 417.81215635 -365.5410108 416.36829096 C-365.5524142 402.83238646 -365.5393067 389.29659035 -365.51780933 375.76070362 C-365.49993854 364.14884579 -365.50304271 352.53714791 -365.52148438 340.92529297 C-365.54289537 327.43749467 -365.55131558 313.94979135 -365.53903532 300.46197844 C-365.53776114 299.023455 -365.53650365 297.58493155 -365.53526306 296.14640808 C-365.53464596 295.43864594 -365.53402886 294.7308838 -365.53339306 294.00167432 C-365.52994083 289.01653998 -365.53576573 284.03146594 -365.54518127 279.04634094 C-365.55757781 272.33545867 -365.54873915 265.62492514 -365.52560425 258.91405678 C-365.52030976 256.44936437 -365.5218435 253.98464656 -365.53065491 251.51996422 C-365.54156412 248.15891988 -365.52790133 244.79884835 -365.50793457 241.43786621 C-365.5213189 239.97026029 -365.5213189 239.97026029 -365.53497362 238.47300577 C-365.46980855 232.8287416 -364.93572437 229.36297923 -361 225 C-356.63624781 221.36654608 -353.6455335 220.49815992 -348.01443481 220.48101807 C-346.99606578 220.46976619 -346.99606578 220.46976619 -345.95712364 220.458287 C-343.69522134 220.43807951 -341.43432814 220.44609812 -339.17236328 220.45410156 C-337.54587314 220.44536271 -335.91939158 220.43487583 -334.29292297 220.42277527 C-329.8863255 220.39493271 -325.48000879 220.3915102 -321.07333612 220.39249516 C-316.46483235 220.38936455 -311.85645476 220.36374327 -307.24801636 220.34051514 C-298.52526509 220.2999629 -289.80258858 220.27961625 -281.07975757 220.26654124 C-271.147455 220.25066858 -261.21527958 220.21225181 -251.28305078 220.17194796 C-230.85540913 220.08955963 -210.42777347 220.03546084 -190 220 C-190.40233604 219.31060837 -190.80467209 218.62121674 -191.21920013 217.91093445 C-193.05969101 214.75711447 -194.89996442 211.60316765 -196.74023438 208.44921875 C-197.37314392 207.36475464 -198.00605347 206.28029053 -198.65814209 205.16296387 C-202.9610426 197.78796482 -207.24456022 190.40249476 -211.5 183 C-215.31880083 176.36304397 -219.14927831 169.73373794 -223.0234375 163.12890625 C-223.66990234 162.02611328 -224.31636719 160.92332031 -224.98242188 159.78710938 C-226.21824202 157.68149631 -227.45641972 155.57726466 -228.69726562 153.47460938 C-229.24833984 152.53552734 -229.79941406 151.59644531 -230.3671875 150.62890625 C-230.85300293 149.80463135 -231.33881836 148.98035645 -231.83935547 148.13110352 C-234.37853189 143.46882522 -234.46287368 139.18062463 -234 134 C-230.97504782 124.35796494 -219.32348943 119.70371216 -211.125 115.0625 C-209.38838923 114.07015099 -207.65178313 113.07779368 -205.91546631 112.08493042 C-204.12456461 111.0616938 -202.3323964 110.04070384 -200.54003906 109.02001953 C-195.01329764 105.86994686 -189.50790181 102.6828552 -184 99.5 C-181.83343102 98.2498307 -179.66676408 96.99983113 -177.5 95.75 C-176.4275 95.13125 -175.355 94.5125 -174.25 93.875 C-136.33333333 72 -98.41666667 50.125 -60.5 28.25 C-59.42572754 27.63020264 -58.35145508 27.01040527 -57.24462891 26.37182617 C-55.09595273 25.13225505 -52.94719087 23.89283244 -50.79833984 22.65356445 C-45.71756907 19.72318222 -40.6376935 16.79127937 -35.56085205 13.85409546 C-33.16069899 12.46561973 -30.76005639 11.07799167 -28.359375 9.69042969 C-26.66358382 8.7098117 -24.96850224 7.72796691 -23.2734375 6.74609375 C-22.24734375 6.153125 -21.22125 5.56015625 -20.1640625 4.94921875 C-19.26123535 4.42674561 -18.3584082 3.90427246 -17.42822266 3.3659668 C-11.3965858 -0.02705635 -6.97098517 -0.81952075 0 0 Z " fill="#FFFFFF" transform="translate(372,7)"/>
<path d="M0 0 C6.31059225 3.09792711 9.73369143 8.28214889 13.14453125 14.26171875 C13.73105469 15.28458984 14.31757813 16.30746094 14.921875 17.36132812 C15.54578125 18.45896484 16.1696875 19.55660156 16.8125 20.6875 C17.47741412 21.84986717 18.14278737 23.01197181 18.80859375 24.17382812 C20.1900913 26.5854146 21.56961565 28.99811344 22.94775391 31.41162109 C26.11338555 36.95170955 29.30823887 42.47493981 32.5 48 C33.75013641 50.16658796 35.000136 52.33325488 36.25 54.5 C36.86875 55.5725 37.4875 56.645 38.125 57.75 C43.75 67.5 43.75 67.5 45.62524414 70.75048828 C46.87435518 72.91557071 48.12354129 75.08060982 49.37280273 77.24560547 C52.51202309 82.68615706 55.64990563 88.12747216 58.78515625 93.5703125 C64.80747329 104.02206199 70.84669337 114.46299548 76.9375 124.875 C82.35921178 134.14499777 87.70204915 143.45831752 93.01922607 152.78845215 C98.21248595 161.89885501 103.46364295 170.97380247 108.75927734 180.02514648 C113.2413721 187.68884844 117.69046822 195.37122062 122.125 203.0625 C123.06678101 204.69566162 123.06678101 204.69566162 124.02758789 206.36181641 C125.18547134 208.37104301 126.34023817 210.38207036 127.49121094 212.39526367 C128.40410748 213.97126582 129.3347922 215.53739312 130.29785156 217.08325195 C133.77877931 222.72547446 133.8547474 227.54890643 133 234 C129.04748174 243.27982548 116.40821375 248.17574206 108.0625 252.9375 C106.3326544 253.92992138 104.60281157 254.92234765 102.87313843 255.91506958 C101.09060128 256.93764091 99.30731803 257.95890134 97.52392578 258.97998047 C92.00810212 262.13969911 86.50479254 265.32111722 81 268.5 C78.83339031 269.75009875 76.6667235 271.00009851 74.5 272.25 C73.4275 272.86875 72.355 273.4875 71.25 274.125 C-16.5 324.75 -16.5 324.75 -19.75048828 326.62524414 C-21.91557071 327.87435518 -24.08060982 329.12354129 -26.24560547 330.37280273 C-31.68615706 333.51202309 -37.12747216 336.64990563 -42.5703125 339.78515625 C-44.75521193 341.04426459 -46.94010779 342.30337914 -49.125 343.5625 C-50.18525391 344.17295166 -51.24550781 344.78340332 -52.33789062 345.41235352 C-57.87215172 348.60282634 -63.39409569 351.81287582 -68.8984375 355.0546875 C-70.56108643 356.03199829 -70.56108643 356.03199829 -72.25732422 357.02905273 C-74.37837494 358.2773778 -76.49728476 359.52934949 -78.61376953 360.78540039 C-79.55591309 361.3396167 -80.49805664 361.89383301 -81.46875 362.46484375 C-82.29826172 362.955896 -83.12777344 363.44694824 -83.98242188 363.95288086 C-86 365 -86 365 -88 365 C-88.00146656 364.32008436 -88.00293312 363.64016872 -88.00444412 362.93964958 C-88.04151039 346.38887426 -88.10052254 329.83833708 -88.18390274 313.28773308 C-88.22369685 305.28394107 -88.25608741 297.28024743 -88.27099609 289.27636719 C-88.28401074 282.29943669 -88.31097042 275.32272262 -88.35461307 268.34591401 C-88.37723236 264.65235818 -88.39291042 260.95906932 -88.39188385 257.26543808 C-88.39099874 253.14003157 -88.42124914 249.01541255 -88.45410156 244.89013672 C-88.4490712 243.66806015 -88.44404083 242.44598358 -88.43885803 241.18687439 C-88.51711047 234.84621786 -88.65793085 230.78328491 -93 226 C-97.79946051 221.78229228 -102.28242097 221.87417817 -108.4152832 221.9375 C-110.19533663 221.94694472 -111.97539145 221.95612843 -113.75544739 221.96508789 C-115.17153762 221.97452927 -115.17153762 221.97452927 -116.61623573 221.98416138 C-121.61329173 222.01113199 -126.61031346 222.00125576 -131.60742188 221.99609375 C-137.96773254 221.98988241 -144.32715427 221.99526296 -150.68725586 222.05126953 C-155.82647056 222.09554985 -160.96404933 222.09607915 -166.1033535 222.06713867 C-168.06056933 222.0640584 -170.01787861 222.07695345 -171.97487831 222.10620117 C-187.27138626 222.32219418 -187.27138626 222.32219418 -191.44815063 219.12744141 C-193.03946414 216.79488506 -194.04271363 214.64833059 -195 212 C-195.89477051 210.49179687 -195.89477051 210.49179687 -196.80761719 208.953125 C-197.5447998 207.61507812 -197.5447998 207.61507812 -198.296875 206.25 C-198.85761719 205.2386499 -199.41835937 204.2272998 -199.99609375 203.18530273 C-200.57488281 202.13415283 -201.15367187 201.08300293 -201.75 200 C-205.76460413 192.77087205 -209.78499785 185.55203359 -214 178.4375 C-214.37987061 177.79603027 -214.75974121 177.15456055 -215.15112305 176.49365234 C-215.96224133 175.1252963 -216.77369797 173.75714079 -217.58544922 172.38916016 C-220.59274595 167.30987023 -223.57867134 162.21809986 -226.5625 157.125 C-227.18318359 156.07111084 -227.80386719 155.01722168 -228.44335938 153.93139648 C-229.02021484 152.94598877 -229.59707031 151.96058105 -230.19140625 150.9453125 C-230.70904541 150.06375488 -231.22668457 149.18219727 -231.76000977 148.27392578 C-234.34195779 143.53908351 -234.47066445 139.26782136 -234 134 C-230.97504782 124.35796494 -219.32348943 119.70371216 -211.125 115.0625 C-209.38838923 114.07015099 -207.65178313 113.07779368 -205.91546631 112.08493042 C-204.12456461 111.0616938 -202.3323964 110.04070384 -200.54003906 109.02001953 C-195.01329764 105.86994686 -189.50790181 102.6828552 -184 99.5 C-181.83343102 98.2498307 -179.66676408 96.99983113 -177.5 95.75 C-176.4275 95.13125 -175.355 94.5125 -174.25 93.875 C-136.33333333 72 -98.41666667 50.125 -60.5 28.25 C-59.42572754 27.63020264 -58.35145508 27.01040527 -57.24462891 26.37182617 C-55.09595273 25.13225505 -52.94719087 23.89283244 -50.79833984 22.65356445 C-45.71756907 19.72318222 -40.6376935 16.79127937 -35.56085205 13.85409546 C-33.16069899 12.46561973 -30.76005639 11.07799167 -28.359375 9.69042969 C-26.66358382 8.7098117 -24.96850224 7.72796691 -23.2734375 6.74609375 C-21.73429687 5.85664063 -21.73429687 5.85664063 -20.1640625 4.94921875 C-19.26123535 4.42674561 -18.3584082 3.90427246 -17.42822266 3.3659668 C-11.3965858 -0.02705635 -6.97098517 -0.81952075 0 0 Z " fill="#303F6D" transform="translate(372,7)"/>
<path d="M0 0 C6.17138857 3.64162929 10.36419403 9.57411602 12.36328125 16.39453125 C13.52114251 24.08325038 11.73595385 30.01725812 7.36328125 36.39453125 C2.97294627 41.34799708 -2.31196452 44.73705172 -8.94921875 45.74609375 C-16.5317131 46.19630435 -22.80589124 43.78985416 -28.4921875 38.75 C-33.75497818 32.99341661 -36.32092417 26.84389921 -36.046875 19.015625 C-34.92367408 11.83783625 -31.19280326 5.94770546 -25.44921875 1.578125 C-16.96762294 -3.9605033 -9.1020195 -4.00602102 0 0 Z " fill="#303F6D" transform="translate(223.63671875,278.60546875)"/>
<path d="M0 0 C7.00247193 3.90247651 11.3603232 9.23743031 13.75 16.9375 C14.79047423 23.80976806 13.26737273 29.97668627 9.75 35.9375 C5.11430434 41.29720887 -0.4367881 45.21266775 -7.55859375 46.28515625 C-14.40860516 46.70192761 -19.62294436 44.79577476 -25.25 40.9375 C-30.20346583 36.54716502 -33.59252047 31.26225423 -34.6015625 24.625 C-35.0517731 17.04250565 -32.64532291 10.76832751 -27.60546875 5.08203125 C-19.54259927 -2.28921511 -10.05823055 -4.58292309 0 0 Z " fill="#303F6D" transform="translate(222.25,411.0625)"/>
<path d="M0 0 C7.00247193 3.90247651 11.3603232 9.23743031 13.75 16.9375 C14.79047423 23.80976806 13.26737273 29.97668627 9.75 35.9375 C5.11430434 41.29720887 -0.4367881 45.21266775 -7.55859375 46.28515625 C-14.40860516 46.70192761 -19.62294436 44.79577476 -25.25 40.9375 C-30.20346583 36.54716502 -33.59252047 31.26225423 -34.6015625 24.625 C-35.0517731 17.04250565 -32.64532291 10.76832751 -27.60546875 5.08203125 C-19.54259927 -2.28921511 -10.05823055 -4.58292309 0 0 Z " fill="#303F6D" transform="translate(89.25,411.0625)"/>
<path d="M0 0 C7.00247193 3.90247651 11.3603232 9.23743031 13.75 16.9375 C14.98601009 25.23860479 12.0929173 31.35421471 7.625 38.1875 C2.55559069 43.03650021 -3.15159417 46.16007069 -10.25 46.5625 C-17.5069036 46.14032165 -23.80283999 42.90547379 -28.6875 37.5625 C-32.94387021 31.95566673 -34.90654194 26.59665443 -34.66015625 19.55859375 C-33.53713241 12.38193662 -29.80685016 6.48482388 -24.05859375 2.12109375 C-16.23197592 -3.00086133 -8.51778418 -3.8810355 0 0 Z " fill="#303F6D" transform="translate(89.25,278.0625)"/>
<path d="M0 0 C6.49386422 2.99111322 11.21326114 7.00167386 14.33984375 13.48046875 C16.47422639 20.01882642 16.0988781 28.0037194 13.3125 34.3125 C9.87954848 39.92126586 5.25165583 43.63098668 -0.796875 46.125 C-7.32399387 46.97821815 -14.5073932 47.49219146 -20.359375 44.0625 C-25.5634485 40.06023868 -29.76008615 35.42890759 -31.796875 29.125 C-32.69749446 21.8062819 -32.48840566 15.35898911 -28.42578125 9.0625 C-21.02028568 0.25404484 -11.22726615 -3.51244081 0 0 Z " fill="#FFFFFF" transform="translate(420.796875,191.875)"/>
<path d="M0 0 C4.47000312 3.49633907 7.08554848 7.2678122 8.203125 12.796875 C8.88344393 20.50343862 8.623502 27.24431615 4.203125 33.796875 C-0.18240479 38.74687892 -5.48259367 42.14098764 -12.109375 43.1484375 C-19.70772992 43.59958982 -25.91112738 41.16724977 -31.65234375 36.1875 C-36.62489279 30.8343361 -38.889424 25.06310089 -39.234375 17.796875 C-38.93097883 10.16529438 -35.94914965 5.60688303 -30.484375 0.421875 C-20.78452653 -7.66133206 -10.05086144 -6.72970723 0 0 Z " fill="#FFFFFF" transform="translate(245.796875,147.203125)"/>
<path d="M0 0 C5.2393581 3.60331333 9.10125305 8.33417988 11.0390625 14.40234375 C11.9519116 22.00234325 11.4409365 28.98396881 7.0390625 35.40234375 C2.17680895 40.80254876 -2.37577972 43.99318661 -9.71875 44.6484375 C-16.35233656 44.92275875 -21.60157852 44.52847389 -26.9609375 40.40234375 C-33.40231994 34.40739375 -35.97133687 29.34404988 -36.3359375 20.52734375 C-36.1850533 13.74593728 -34.77088072 9.36480998 -30.08984375 4.4296875 C-21.49719121 -3.48075066 -10.71008846 -5.47188156 0 0 Z " fill="#303F6D" transform="translate(157.9609375,345.59765625)"/>
<path d="M0 0 C4.4985765 3.4827689 8.7544772 8.04132561 10.81640625 13.40625 C11.76329235 22.81362489 10.92217157 29.53232354 5.19140625 37.09375 C0.11362471 42.61957109 -5.72111296 44.60377999 -13.12109375 45.03125 C-20.3621535 44.76340468 -25.91295958 41.91544808 -30.84375 36.625 C-36.15662961 29.56181311 -37.05866797 23.02236538 -36.18359375 14.40625 C-34.39107721 7.68998551 -29.72923675 3.33169534 -24.18359375 -0.59375 C-17.09009296 -4.30171632 -6.91658952 -4.04310035 0 0 Z " fill="#FFFFFF" transform="translate(334.18359375,169.59375)"/>
</svg>
