<?xml version="1.0" encoding="UTF-8"?>
<svg version="1.1" xmlns="http://www.w3.org/2000/svg" width="640" height="640">
<path d="M0 0 C0.54446777 0.44150391 1.08893555 0.88300781 1.64990234 1.33789062 C10.34593918 8.4580353 18.4094467 16.20554462 26.375 24.125 C27.29015381 25.03088867 28.20530762 25.93677734 29.14819336 26.87011719 C35.19048601 32.9404012 40.68445782 39.28862272 46 46 C46.60070312 46.74137207 47.20140625 47.48274414 47.8203125 48.24658203 C84.54872044 93.57661424 107.20177109 149.14326394 114 207 C114.1403064 208.10843262 114.1403064 208.10843262 114.28344727 209.23925781 C119.10940204 253.07682357 113.57525154 298.49184035 99 340 C98.71962891 340.80646973 98.43925781 341.61293945 98.15039062 342.44384766 C88.1521503 370.84392655 74.18697765 397.96933773 56 422 C55.21367188 423.05960937 54.42734375 424.11921875 53.6171875 425.2109375 C39.46914525 444.11700732 23.16897398 462.61270167 4.4609375 477.08984375 C1.75436199 479.19066188 -0.79352842 481.4350395 -3.375 483.6875 C-20.90823846 498.3099025 -41.40158695 510.25905131 -61.99609375 520.04541016 C-63.30719094 520.66997034 -64.61468018 521.30217602 -65.91796875 521.94287109 C-101.60232312 539.43218575 -142.36910507 548.93608336 -182 550 C-182.77956055 550.02191406 -183.55912109 550.04382813 -184.36230469 550.06640625 C-232.82282862 551.21430654 -280.3745876 539.87601742 -324 519 C-324.8259668 518.61086426 -325.65193359 518.22172852 -326.50292969 517.82080078 C-350.61742112 506.41757072 -372.98629971 491.63111692 -393 474 C-393.73476563 473.36449219 -394.46953125 472.72898437 -395.2265625 472.07421875 C-397.1632118 470.39604655 -399.08406992 468.70177422 -401 467 C-401.80050781 466.29230469 -402.60101563 465.58460938 -403.42578125 464.85546875 C-411.49062169 457.67176414 -418.98976194 450.2135923 -426 442 C-426.80050781 441.08863281 -427.60101563 440.17726563 -428.42578125 439.23828125 C-480.7774707 379.19520295 -506.61134401 297.8680156 -501.48461914 218.71533203 C-496.44772838 151.02916418 -468.53734359 85.28060079 -422.26171875 35.4453125 C-420.3095112 33.3346356 -418.42693722 31.18772443 -416.5625 29 C-409.63691871 21.04538187 -401.98747112 13.86754716 -394 7 C-393.36441162 6.45239014 -392.72882324 5.90478027 -392.07397461 5.34057617 C-344.32439724 -35.48540422 -284.70369482 -61.98827452 -222 -68 C-220.46666016 -68.16628906 -220.46666016 -68.16628906 -218.90234375 -68.3359375 C-140.79570076 -75.49813277 -60.5172064 -49.33934435 0 0 Z M-239.15234375 198.20703125 C-249.51337229 210.1987783 -254.4136798 224.54834061 -254.3125 240.25 C-254.30686035 241.17095459 -254.3012207 242.09190918 -254.29541016 243.04077148 C-253.99722969 259.87025418 -248.34678192 273.54249662 -237 286 C-236.44183594 286.61359375 -235.88367188 287.2271875 -235.30859375 287.859375 C-226.03118048 296.90848503 -210.64363028 304.74954979 -197.625 305.375 C-179.32180538 304.54881413 -159.23518169 294.89853101 -146.75 281.75 C-134.19306139 266.72284396 -129.75095564 249.29542233 -131 230 C-133.06533278 214.26496469 -140.55411397 201.60985289 -152.875 191.6875 C-179.6813393 172.95472352 -216.22048269 174.69250947 -239.15234375 198.20703125 Z " fill="#848382" transform="translate(517,84)"/>
<path d="M0 0 C0.54446777 0.44150391 1.08893555 0.88300781 1.64990234 1.33789062 C10.34593918 8.4580353 18.4094467 16.20554462 26.375 24.125 C27.29015381 25.03088867 28.20530762 25.93677734 29.14819336 26.87011719 C35.19048601 32.9404012 40.68445782 39.28862272 46 46 C46.60070312 46.74137207 47.20140625 47.48274414 47.8203125 48.24658203 C84.54872044 93.57661424 107.20177109 149.14326394 114 207 C114.1403064 208.10843262 114.1403064 208.10843262 114.28344727 209.23925781 C119.10940204 253.07682357 113.57525154 298.49184035 99 340 C98.71962891 340.80646973 98.43925781 341.61293945 98.15039062 342.44384766 C88.1521503 370.84392655 74.18697765 397.96933773 56 422 C55.21367188 423.05960937 54.42734375 424.11921875 53.6171875 425.2109375 C39.46914525 444.11700732 23.16897398 462.61270167 4.4609375 477.08984375 C1.75436199 479.19066188 -0.79352842 481.4350395 -3.375 483.6875 C-20.90823846 498.3099025 -41.40158695 510.25905131 -61.99609375 520.04541016 C-63.30719094 520.66997034 -64.61468018 521.30217602 -65.91796875 521.94287109 C-101.60232312 539.43218575 -142.36910507 548.93608336 -182 550 C-182.77956055 550.02191406 -183.55912109 550.04382813 -184.36230469 550.06640625 C-232.82282862 551.21430654 -280.3745876 539.87601742 -324 519 C-324.8259668 518.61086426 -325.65193359 518.22172852 -326.50292969 517.82080078 C-350.61742112 506.41757072 -372.98629971 491.63111692 -393 474 C-393.73476563 473.36449219 -394.46953125 472.72898437 -395.2265625 472.07421875 C-397.1632118 470.39604655 -399.08406992 468.70177422 -401 467 C-401.80050781 466.29230469 -402.60101563 465.58460938 -403.42578125 464.85546875 C-411.49062169 457.67176414 -418.98976194 450.2135923 -426 442 C-426.80050781 441.08863281 -427.60101563 440.17726563 -428.42578125 439.23828125 C-480.7774707 379.19520295 -506.61134401 297.8680156 -501.48461914 218.71533203 C-496.44772838 151.02916418 -468.53734359 85.28060079 -422.26171875 35.4453125 C-420.3095112 33.3346356 -418.42693722 31.18772443 -416.5625 29 C-409.63691871 21.04538187 -401.98747112 13.86754716 -394 7 C-393.36441162 6.45239014 -392.72882324 5.90478027 -392.07397461 5.34057617 C-344.32439724 -35.48540422 -284.70369482 -61.98827452 -222 -68 C-220.46666016 -68.16628906 -220.46666016 -68.16628906 -218.90234375 -68.3359375 C-140.79570076 -75.49813277 -60.5172064 -49.33934435 0 0 Z M-236 -8 C-236.77778809 -7.86078125 -237.55557617 -7.7215625 -238.35693359 -7.578125 C-273.01008531 -1.16554777 -307.50936978 13.19705089 -336 34 C-336.54769043 34.39896484 -337.09538086 34.79792969 -337.65966797 35.20898438 C-341.51635188 38.04582264 -345.27956428 40.98715242 -349 44 C-349.54446777 44.44005371 -350.08893555 44.88010742 -350.64990234 45.33349609 C-364.68164943 56.77904774 -378.07350498 69.53078475 -389 84 C-389.50563477 84.65097656 -390.01126953 85.30195313 -390.53222656 85.97265625 C-413.35718936 115.38857373 -429.71597853 149.27166061 -437.50488281 185.71826172 C-437.94058696 187.72619613 -438.41639865 189.72533874 -438.8984375 191.72265625 C-453.08364051 251.76398582 -438.34477723 320.02583604 -406.72509766 372.09960938 C-403.95159587 376.49534805 -401.01886138 380.76988994 -398 385 C-397.27167969 386.02351563 -396.54335938 387.04703125 -395.79296875 388.1015625 C-381.93955358 407.02208268 -365.67458691 424.8485163 -346.71533203 438.73339844 C-344.93361727 440.04901703 -343.18312643 441.39975377 -341.43359375 442.7578125 C-311.6792353 465.59319965 -275.1146004 479.09210966 -238.6875 486.6875 C-237.74092529 486.89012451 -236.79435059 487.09274902 -235.8190918 487.30151367 C-218.39329547 490.77912868 -200.65694169 491.41093127 -182.9375 491.375 C-181.96364349 491.37478851 -180.98978699 491.37457703 -179.98641968 491.37435913 C-157.45180288 491.32579067 -135.46154837 489.31039921 -114 482 C-113.20142578 481.7323584 -112.40285156 481.4647168 -111.58007812 481.18896484 C-91.82843075 474.4464499 -73.16384589 464.86479876 -56 453 C-55.44618652 452.62198242 -54.89237305 452.24396484 -54.32177734 451.85449219 C-39.98524014 442.04120385 -26.54531193 431.01401014 -14 419 C-13.4730957 418.50032715 -12.94619141 418.0006543 -12.40332031 417.48583984 C-4.0953567 409.56985434 3.16195346 401.20674792 10 392 C10.62769287 391.17145508 10.62769287 391.17145508 11.26806641 390.32617188 C28.16936328 367.98454339 38.97087063 343.34963638 48 317 C48.43441406 315.7625 48.86882812 314.525 49.31640625 313.25 C52.58261883 303.41293624 54.29250792 293.20062505 56 283 C56.23082275 281.65784424 56.23082275 281.65784424 56.46630859 280.28857422 C62.20379572 246.00631331 59.81319002 209.5632501 51 176 C50.78504883 175.16533203 50.57009766 174.33066406 50.34863281 173.47070312 C39.98356313 134.02456349 19.34908351 97.36967785 -8.50390625 67.68359375 C-10.63059822 65.39715027 -12.67072561 63.07012916 -14.6875 60.6875 C-18.14503136 56.71744046 -21.97923781 53.38554934 -26 50 C-27.35158203 48.79923828 -27.35158203 48.79923828 -28.73046875 47.57421875 C-42.46840128 35.45882388 -57.81162988 25.51460706 -74 17 C-74.59619141 16.68337402 -75.19238281 16.36674805 -75.80664062 16.04052734 C-111.61880556 -2.86253105 -151.00350498 -11.21812159 -191.25 -11.25 C-192.57659637 -11.25151062 -192.57659637 -11.25151062 -193.92999268 -11.25305176 C-208.13938809 -11.24213602 -221.9940932 -10.57733125 -236 -8 Z " fill="#B2B1AE" transform="translate(517,84)"/>
<path d="M0 0 C4.83382948 2.03240558 8.43228214 6.19404477 12.0625 9.8671875 C12.64 10.42277344 13.2175 10.97835937 13.8125 11.55078125 C16.48539448 14.35276438 17.05920741 15.82635935 17.375 19.7421875 C17.2203125 21.2890625 17.2203125 21.2890625 17.0625 22.8671875 C16.134375 23.1765625 16.134375 23.1765625 15.1875 23.4921875 C12.88342314 24.73689315 12.88342314 24.73689315 11.8125 27.2421875 C10.19895837 35.04097203 9.98868762 42.25037882 13.89453125 49.34375 C15.16191586 51.16661491 15.16191586 51.16661491 18.0625 52.8671875 C23.31584011 53.38290641 28.64194539 52.96500334 33.875 52.3671875 C47.50497937 50.94380358 58.84790699 51.70172394 70.5 59.6171875 C76.70994533 64.70043389 81.76745445 72.80473672 83.75 80.5546875 C85.51741863 99.28932495 79.33021151 112.04688366 69.5 127.5546875 C67.30482814 131.10819775 66.29570757 133.59505827 67.0625 137.8671875 C68.24185148 139.26034586 68.24185148 139.26034586 71.5625 139.1796875 C83.23098552 138.95170643 94.11031516 129.52195341 101.84765625 121.515625 C105.51858161 117.12605288 108.75241531 112.42167995 112.04516602 107.74511719 C116.89089139 100.92787787 122.21510218 94.84348587 128.0625 88.8671875 C131.03948812 89.18615051 132.01911011 89.82165693 134.12109375 92.02734375 C142.47845283 104.25229354 146.34284459 120.19246878 145.0625 134.8671875 C144.7325 135.5271875 144.4025 136.1871875 144.0625 136.8671875 C143.80256192 140.85290469 143.91813629 143.4781458 146.0625 146.8671875 C147.87653873 148.24506877 147.87653873 148.24506877 150.0625 149.3046875 C150.86816406 149.73136719 151.67382812 150.15804687 152.50390625 150.59765625 C154.16408124 151.4214072 155.83832668 152.2176005 157.52734375 152.98046875 C169.95273561 158.69261572 179.25638256 168.84935085 185.43359375 180.9453125 C186.21022018 183.31860569 186.16942386 185.38655396 186.0625 187.8671875 C176.87783583 191.11289589 167.74703991 192.58751213 158.125 193.8671875 C136.16373419 196.20800197 136.16373419 196.20800197 118.1875 207.8671875 C114.56739148 212.97792894 113.7861157 216.79501162 113.8125 223.0546875 C113.80734375 224.28574219 113.8021875 225.51679688 113.796875 226.78515625 C113.73841062 229.9722836 113.73841062 229.9722836 116.0625 231.8671875 C118.70976838 231.98161183 121.25273114 231.97733496 123.89453125 231.88671875 C125.514957 231.85649848 127.13540081 231.82723443 128.75585938 231.79882812 C131.29895623 231.74359102 133.84112961 231.68076542 136.38354492 231.59985352 C151.138237 231.15714018 162.44511951 232.90579327 174.0625 242.8671875 C174.89265625 243.46402344 175.7228125 244.06085938 176.578125 244.67578125 C179.42848558 247.19001441 180.68782226 249.44681331 182.3125 252.8671875 C182.81265625 253.8984375 183.3128125 254.9296875 183.828125 255.9921875 C187.27478265 264.01984582 187.53111164 273.87830938 184.5625 282.1171875 C180.40256884 290.98976795 173.8940167 297.43409129 166.1640625 303.2734375 C162.66167956 305.88678305 162.66167956 305.88678305 161.5625 310.0546875 C162.34236412 316.00115143 165.39619058 318.78982193 170.0078125 322.3828125 C175.60197815 325.97463842 180.6666435 326.45352489 187.2421875 326.53125 C190.0625 326.8671875 190.0625 326.8671875 191.9140625 328.12890625 C193.30341172 330.23183279 193.45603859 331.5484084 193.5625 334.0546875 C193.80995786 337.3738505 194.36624314 339.93901287 195.6875 342.9921875 C197.27698898 346.96986391 197.40101813 349.69416039 196.0625 353.8671875 C192.7382704 357.70741692 189.17643419 359.6719693 184.1015625 360.140625 C174.8614723 360.41550183 174.8614723 360.41550183 170.875 357.6796875 C169.0625 354.8671875 169.0625 354.8671875 168 352.1796875 C166.81269673 349.25100609 165.88036082 349.13347309 163.0625 347.8671875 C162.39992188 347.51398438 161.73734375 347.16078125 161.0546875 346.796875 C155.45061141 344.00517658 150.32517595 342.84905871 144.0625 343.8671875 C141.57223915 346.35744835 141.53937161 347.87581659 140.875 351.3046875 C137.5885685 364.77104098 127.19147403 376.65904179 115.66015625 384.2109375 C108.27190431 388.58120047 102.6861545 390.74843687 94.0625 389.8671875 C80.18753988 385.90291318 68.20479138 375.5540192 61.2421875 363.171875 C59.4392596 359.64959865 58.29847153 356.36816104 57.68359375 352.45703125 C56.97317307 348.11130473 56.42822265 345.37513563 53.8125 341.7421875 C51.17561419 339.6846481 51.17561419 339.6846481 48 339.2421875 C44.88330895 339.62668215 44.88330895 339.62668215 42.75 342.1796875 C37.1865035 351.04007082 39.85301928 364.57224652 41.890625 374.43359375 C44.1452788 383.80371864 48.77018208 392.46010769 53.17578125 400.97265625 C53.50416992 401.61114502 53.83255859 402.24963379 54.17089844 402.9074707 C55.06654801 404.62978557 55.98751047 406.3388699 56.91015625 408.046875 C58.0625 410.8671875 58.0625 410.8671875 57.87109375 413.1875 C57.0625 414.8671875 57.0625 414.8671875 55.0625 415.8671875 C37.37612649 417.03362011 18.96240292 413.91782647 4.52734375 403.22265625 C1.39740676 401.50143892 -0.4147505 401.31806671 -3.9375 401.8671875 C-6.24022693 403.6316997 -6.24022693 403.6316997 -8.1875 406.0546875 C-17.11688226 415.59833934 -30.09147699 419.58123218 -42.9453125 420.0703125 C-44.31763796 420.09122413 -45.69005446 420.10680984 -47.0625 420.1171875 C-48.09697266 420.148125 -48.09697266 420.148125 -49.15234375 420.1796875 C-53.60802325 420.21376535 -56.40274995 419.61495546 -59.9375 416.8671875 C-61.7706529 413.2008817 -61.4167619 409.55223571 -60.32421875 405.7109375 C-58.61062382 401.1816117 -56.48493075 397.06173012 -54.046875 392.88037109 C-46.39326678 379.53296384 -41.22889618 361.96617321 -44.4140625 346.5625 C-45.04539706 344.37329276 -45.04539706 344.37329276 -46.9375 341.8671875 C-49.79462251 340.99255816 -51.98627804 340.8671875 -54.9375 340.8671875 C-55.08445312 341.88296875 -55.23140625 342.89875 -55.3828125 343.9453125 C-57.54869162 357.71123725 -61.67169318 368.90614116 -72.9375 377.8671875 C-87.62377179 387.79348187 -101.68084673 390.87044826 -119.14453125 387.6171875 C-127.41097294 385.39738777 -133.00108792 379.6560646 -137.38525391 372.50610352 C-138.81570519 369.93651545 -140.19977582 367.34830126 -141.5625 364.7421875 C-146.80388104 354.02137992 -146.80388104 354.02137992 -155.9375 346.8671875 C-158.9375 346.1171875 -158.9375 346.1171875 -161.9375 346.8671875 C-165.67194262 350.51054616 -168.19927029 354.74155038 -170.82421875 359.23046875 C-171.9375 360.8671875 -171.9375 360.8671875 -173.9375 361.8671875 C-183.38839368 363.25995078 -193.94143643 360.07846873 -201.87890625 354.9765625 C-203.9375 352.8671875 -203.9375 352.8671875 -204.3828125 350.7109375 C-203.2986685 342.77817656 -201.22499422 333.44333107 -195.1875 327.7421875 C-191.7626558 325.76631584 -189.07801392 325.14320015 -185.24609375 324.4453125 C-179.87524402 323.10032813 -176.00469004 320.06452267 -172.375 315.9921875 C-170.47719832 311.86653167 -170.54142128 310.2023793 -171.9375 305.8671875 C-174.72474203 301.54882052 -177.99660433 297.80808317 -181.625 294.1796875 C-188.7375515 287.067136 -191.07502459 279.40193605 -191.4375 269.5546875 C-191.15089939 257.10625239 -185.71789115 248.04937961 -177.35546875 239.19140625 C-168.09311313 230.46991811 -156.57669912 227.13914679 -144.19482422 226.58544922 C-130.50256951 226.11537378 -130.50256951 226.11537378 -118.9375 219.8671875 C-118.18567347 216.5380916 -118.18567347 216.5380916 -118.9375 212.8671875 C-122.74379436 208.41313206 -127.77552581 205.51975227 -133.1875 203.4296875 C-133.91984863 203.1416626 -134.65219727 202.8536377 -135.40673828 202.55688477 C-145.36583824 198.95712779 -155.93828638 197.30167431 -166.34863281 195.52758789 C-175.48984117 193.91456301 -182.85182981 191.63018004 -190.9375 186.8671875 C-191.25891479 176.43377598 -182.37307859 168.80300807 -175.578125 161.5078125 C-169.27190219 155.20158969 -162.62314106 149.81432959 -154.6171875 145.83984375 C-152.75966402 144.96977722 -152.75966402 144.96977722 -151.9375 142.8671875 C-151.89976389 140.88963107 -151.92492057 138.91073003 -151.98046875 136.93359375 C-152.01237305 135.1227832 -152.01237305 135.1227832 -152.04492188 133.27539062 C-152.09758128 130.74645502 -152.16233946 128.21773726 -152.24023438 125.68945312 C-152.38737758 115.3839791 -150.72771688 106.74217065 -144.3125 98.4296875 C-143.62929687 97.53765625 -142.94609375 96.645625 -142.2421875 95.7265625 C-138.20509 90.71782459 -134.10861785 85.76483202 -129.9375 80.8671875 C-127.24161453 84.12453313 -124.91069764 87.3934354 -122.765625 91.03515625 C-122.18296875 92.01162109 -121.6003125 92.98808594 -121 93.99414062 C-119.80428578 96.01319685 -118.61151061 98.0339969 -117.421875 100.05664062 C-113.39977704 106.7821882 -108.95930793 112.85779342 -103.9375 118.8671875 C-103.3587915 119.59107666 -102.78008301 120.31496582 -102.18383789 121.06079102 C-96.86267486 127.70681859 -88.94057298 134.71197187 -80.9375 137.8671875 C-78.80462627 138.10639705 -78.80462627 138.10639705 -76.6875 137.9921875 C-75.45 137.9509375 -74.2125 137.9096875 -72.9375 137.8671875 C-71.89603685 131.32084771 -74.60733078 127.53918254 -77.9921875 122.05078125 C-86.52899069 108.07990856 -91.41597236 94.95293147 -88.28125 78.40234375 C-84.57375068 64.9626587 -77.23614836 54.94485016 -65.1875 47.9921875 C-58.67162224 44.45298771 -52.26702647 44.08763093 -44.9375 44.8671875 C-39.68152532 46.42365293 -34.62405552 48.41605532 -29.796875 51.0234375 C-26.89178643 52.34171299 -24.07376235 51.98781297 -20.9375 51.8671875 C-16.99271164 45.04773953 -17.01072607 38.57099579 -17.9375 30.8671875 C-19.00804633 28.44730674 -20.21952823 26.59510834 -21.80078125 24.48828125 C-22.9375 22.8671875 -22.9375 22.8671875 -23.625 19.8671875 C-21.86842767 12.20214462 -15.02317874 6.42528696 -8.9375 1.8671875 C-5.85892098 0.08701681 -3.61060265 -0.63808064 0 0 Z M-48.08984375 192.07421875 C-58.45087229 204.0659658 -63.3511798 218.41552811 -63.25 234.1171875 C-63.24436035 235.03814209 -63.2387207 235.95909668 -63.23291016 236.90795898 C-62.93472969 253.73744168 -57.28428192 267.40968412 -45.9375 279.8671875 C-45.37933594 280.48078125 -44.82117188 281.094375 -44.24609375 281.7265625 C-34.96868048 290.77567253 -19.58113028 298.61673729 -6.5625 299.2421875 C11.74069462 298.41600163 31.82731831 288.76571851 44.3125 275.6171875 C56.86943861 260.59003146 61.31154436 243.16260983 60.0625 223.8671875 C57.99716722 208.13215219 50.50838603 195.47704039 38.1875 185.5546875 C11.3811607 166.82191102 -25.15798269 168.55969697 -48.08984375 192.07421875 Z " fill="#B2B1AE" transform="translate(325.9375,90.1328125)"/>
<path d="M0 0 C1.22372314 0.22848633 2.44744629 0.45697266 3.70825195 0.69238281 C27.12424135 5.18316281 50.43266366 12.43554892 71.44238281 23.84179688 C73.2776184 24.82733127 75.13039762 25.76884499 76.9921875 26.703125 C86.65290043 31.6049587 95.49614826 37.44482984 104.25 43.8125 C104.83555664 44.23821289 105.42111328 44.66392578 106.02441406 45.10253906 C114.25136895 51.13941531 121.90345572 57.7341992 129.25 64.8125 C129.91080566 65.44607422 130.57161133 66.07964844 131.25244141 66.73242188 C140.73922289 75.8753697 149.47744533 85.17153898 157.25 95.8125 C158.10806152 96.96355017 158.96613451 98.11459177 159.82421875 99.265625 C165.86200965 107.45705946 171.20668863 115.97913432 176.25 124.8125 C176.90613281 125.946875 177.56226563 127.08125 178.23828125 128.25 C190.28815465 149.62113263 198.14283292 172.90065415 203.25 196.8125 C203.39179687 197.47217773 203.53359375 198.13185547 203.6796875 198.81152344 C211.12710202 234.09891912 210.45749905 271.92278138 201.25 306.8125 C200.82267578 308.61654297 200.82267578 308.61654297 200.38671875 310.45703125 C191.3502504 347.20002811 173.40593417 380.65689357 148.25 408.8125 C147.78706543 409.33183105 147.32413086 409.85116211 146.84716797 410.38623047 C138.53257052 419.6715823 130.06612001 428.58748597 120.3046875 436.375 C118.1397126 438.1025503 116.0047117 439.84650868 113.8828125 441.625 C104.23356031 449.64120035 94.0210714 456.39814204 83.25 462.8125 C82.51410645 463.25335937 81.77821289 463.69421875 81.02001953 464.1484375 C55.89873262 479.05520249 28.65750122 488.43652765 0.25 494.8125 C-0.46430176 494.97766113 -1.17860352 495.14282227 -1.91455078 495.31298828 C-13.95650563 498.03431811 -26.42670714 498.87819356 -38.75 497.8125 C-40.4040556 496.1584444 -39.88162597 494.17246412 -39.89663696 491.96180725 C-39.89618378 491.26881027 -39.89573059 490.57581329 -39.89526367 489.86181641 C-39.90030159 488.771549 -39.90030159 488.771549 -39.90544128 487.65925598 C-39.91497984 485.24417434 -39.91689594 482.82916183 -39.91796875 480.4140625 C-39.92117968 478.74115978 -39.92454363 477.06825734 -39.92805481 475.39535522 C-39.93405361 471.88302967 -39.93589398 468.37072875 -39.93530273 464.85839844 C-39.93520115 460.35334694 -39.94884585 455.84845321 -39.96607494 451.3434391 C-39.97718412 447.88623324 -39.97922226 444.42906561 -39.97869301 440.97184372 C-39.97987505 439.31083 -39.98430934 437.64981534 -39.99202538 435.98881912 C-40.00180208 433.66642417 -39.99895637 431.34437292 -39.99291992 429.02197266 C-39.99853943 428.33302414 -40.00415894 427.64407562 -40.00994873 426.93424988 C-39.98604141 423.32212096 -39.8166851 421.91252765 -37.75 418.8125 C-34.20074654 418.08509116 -32.74024515 418.81813614 -29.5859375 420.640625 C-28.42707513 421.44041031 -27.2736389 422.24810009 -26.125 423.0625 C-20.24102874 427.03855372 -14.60892739 429.82615463 -7.75 431.8125 C-7.07839844 432.03550781 -6.40679687 432.25851562 -5.71484375 432.48828125 C1.29764367 434.6049869 9.67389438 435.23401782 16.5 432.3125 C17.4075 431.8175 18.315 431.3225 19.25 430.8125 C19.70239524 424.78316349 18.42012163 421.25924344 15.625 416.125 C15.26180664 415.42802002 14.89861328 414.73104004 14.52441406 414.01293945 C13.44393751 411.94012549 12.3476208 409.8762717 11.25 407.8125 C3.45896644 392.82974315 -2.65149999 378.06912355 -0.75 360.8125 C2.31326304 353.77032464 2.31326304 353.77032464 5.25 351.8125 C9.05800504 351.23302097 10.72929967 351.48114525 14 353.5625 C17.7033386 357.2658386 18.45196956 360.36751887 19.0625 365.5 C20.80735654 376.40535334 27.15612465 385.39116436 35.93164062 392.09765625 C44.63762832 398.26636259 53.19402818 403.54096883 64.25 401.8125 C78.46601101 396.8800318 91.31531222 384.39404116 98.296875 371.15234375 C99.64883157 367.83340119 100.2341067 364.51997292 100.6953125 360.9765625 C101.36681308 358.35676447 102.05858035 357.38557325 104.25 355.8125 C110.81342086 354.36734311 116.33650812 356.20497317 122.0546875 359.38671875 C126.78058176 362.4560273 129.45370488 366.01885123 132.25 370.8125 C136.64339115 373.00919557 142.45495399 372.1391698 147.25 371.8125 C150.69453775 370.62472836 152.49130069 369.47330262 155.1875 367.125 C156.79580563 363.62457011 156.10517198 360.43784447 155.25 356.8125 C154.92 356.008125 154.59 355.20375 154.25 354.375 C153.00438028 351.18309948 152.82241565 348.20218274 152.59375 344.80078125 C152.40748857 342.58578395 152.40748857 342.58578395 150.25 340.8125 C148.25395777 340.66163634 146.25153497 340.59082361 144.25 340.5625 C134.77940894 339.95554499 128.48005038 335.72628481 122.2109375 328.81640625 C120.6789948 325.62174525 120.7919306 323.29912743 121.25 319.8125 C123.48046875 317.1171875 123.48046875 317.1171875 126.4375 314.6875 C131.67863764 310.29532843 136.62585813 306.10779113 140.4375 300.375 C140.92605469 299.65441406 141.41460937 298.93382812 141.91796875 298.19140625 C146.29953105 290.36627005 146.60459648 281.2442317 144.45703125 272.6328125 C140.72587101 262.08263526 135.22064753 255.25552615 125.03125 250.22265625 C118.05800378 247.30303253 112.54311696 245.67960345 104.96875 245.8203125 C103.30599565 245.83782497 101.64323484 245.85473362 99.98046875 245.87109375 C97.36000804 245.90209638 94.73986814 245.93767868 92.11962891 245.98388672 C89.59012806 246.02616382 87.06100714 246.04964537 84.53125 246.0703125 C83.35459778 246.09824387 83.35459778 246.09824387 82.1541748 246.1267395 C76.76075492 246.15223064 76.76075492 246.15223064 74.25952148 244.48852539 C71.60639059 240.08375064 72.77543319 233.72181186 73.25 228.8125 C74.95674188 222.0714063 79.72433272 217.74442643 85.25 213.8125 C95.17907848 208.46607313 107.09760908 207.25085534 118.125 205.8125 C127.6096326 204.52243027 136.95110072 203.11974569 146.25 200.8125 C143.76741879 188.89093815 136.1318658 178.60226562 126.3515625 171.41796875 C122.21376903 168.71123033 117.89572944 166.72653131 113.36328125 164.77734375 C109.64463421 163.07955111 106.31805241 161.26893511 103.875 157.9375 C102.8451534 154.43602155 102.59821052 151.11607895 104.25 147.8125 C105.87814932 132.62533663 100.94228931 117.71508379 93.25 104.8125 C92.59 104.1525 91.93 103.4925 91.25 102.8125 C88.3184157 102.94348568 87.20932067 103.84925413 85.0234375 105.82421875 C79.90667309 111.53266113 75.31596547 117.38240645 70.93554688 123.67285156 C62.69518324 135.4124591 50.92864268 149.44864439 36.25 152.8125 C33.48970187 153.05636093 31.04113708 152.99857581 28.25 152.8125 C26.25 150.8125 26.25 150.8125 25.90234375 148.09765625 C26.33160497 144.0413789 27.69070483 141.72459058 29.8125 138.25 C30.54661769 137.01494333 31.2796671 135.77925114 32.01171875 134.54296875 C32.38474121 133.92212402 32.75776367 133.3012793 33.14208984 132.66162109 C40.84975964 119.79738772 45.48978742 108.41867116 42.5625 93.25 C37.75223105 80.65167655 32.30400775 73.68496669 20.08984375 67.765625 C11.11388593 64.20879685 1.07818783 65.53683814 -8.3046875 66.57421875 C-20.01633653 67.71544973 -20.01633653 67.71544973 -24.75 65.25 C-29.63702278 59.29394098 -30.24150393 54.18269709 -30.04296875 46.62890625 C-29.67754551 43.11597086 -28.79677874 40.69315156 -26.75 37.8125 C-25.76 37.1525 -24.77 36.4925 -23.75 35.8125 C-22.99043886 32.77425543 -22.81491444 31.71393692 -23.75 28.8125 C-25.80902684 26.12396177 -28.06680195 23.74059939 -30.4140625 21.30078125 C-34.29584295 17.16584121 -37.27355824 13.24235299 -38.375 7.625 C-37.50999729 3.73248779 -35.8314295 2.2776436 -32.75 -0.1875 C-22.97569666 -5.02319691 -10.24319646 -1.95765573 0 0 Z " fill="#5B5B59" transform="translate(365.75,77.1875)"/>
<path d="M0 0 C0.680625 0.28875 1.36125 0.5775 2.0625 0.875 C2.69944324 13.50770767 1.86672979 25.33716522 -5.9375 35.875 C-7.47367606 37.5454301 -9.03612708 39.19211225 -10.625 40.8125 C-14.39390225 44.83513137 -14.39390225 44.83513137 -16.0625 49.9375 C-16.27398017 52.76398816 -16.27398017 52.76398816 -14.9375 53.875 C-10.79330082 54.08935513 -7.71847026 54.12001028 -3.75 52.875 C6.91470344 50.07770074 17.90524583 51.99416232 28.0625 55.875 C32.80442902 59.16034189 32.80442902 59.16034189 33.875 62.125 C33.936875 62.7025 33.99875 63.28 34.0625 63.875 C26.5485153 70.63758623 18.7116064 73.43656376 9.0625 76.125 C-7.51728418 80.97323059 -24.38222378 87.61264753 -33.9375 102.875 C-35.5909599 106.01657382 -36.12701104 108.97513902 -36.71875 112.4375 C-37.80461777 117.88352941 -39.74304375 122.53542576 -42.1875 127.5 C-42.61933594 128.39170898 -43.05117188 129.28341797 -43.49609375 130.20214844 C-48.57707708 140.48153277 -54.4248367 150.31308179 -60.3125 160.14501953 C-61.75154994 162.56260614 -63.16502083 164.99182643 -64.5625 167.43359375 C-73.25380619 182.58608395 -82.65373986 197.50848974 -93.9375 210.875 C-106.57615007 226.08272146 -107.29719279 244.82932765 -105.9375 263.875 C-104.83694655 271.76983778 -101.82784285 278.86406796 -97.79296875 285.69140625 C-96.70394787 288.47114447 -97.07555367 290.05802455 -97.9375 292.875 C-98.9375 293.875 -98.9375 293.875 -100.87109375 294.0703125 C-108.05847543 293.86848275 -111.59289698 291.28751136 -116.7109375 286.39453125 C-134.67672334 266.06482622 -137.06434537 220.85504614 -135.9375 194.875 C-138.5775 193.555 -141.2175 192.235 -143.9375 190.875 C-143.9375 190.545 -143.9375 190.215 -143.9375 189.875 C-142.76960938 189.78025391 -142.76960938 189.78025391 -141.578125 189.68359375 C-122.48305704 187.59369576 -102.07012103 180.34422059 -88.9375 165.875 C-77.06423881 151.06056914 -72.71818696 133.7111285 -73.9375 114.875 C-75.86777716 100.16890535 -82.49321171 87.53767347 -94.0703125 78.14453125 C-95.65441718 76.99974305 -97.29003929 75.92657066 -98.9375 74.875 C-98.2775 74.215 -97.6175 73.555 -96.9375 72.875 C-105.12770152 65.60362187 -112.96700201 59.91911827 -123.875 57.8125 C-126.80733106 57.24495205 -127.97955995 56.84525028 -130.5 55.0625 C-132.24602326 52.40550809 -132.43031872 50.99618523 -131.9375 47.875 C-128.34047078 44.27797078 -124.32176482 44.73826145 -119.41577148 44.68554688 C-118.7696138 44.67725357 -118.12345612 44.66896027 -117.4577179 44.66041565 C-116.05766136 44.64305683 -114.65757645 44.62787874 -113.2574749 44.61463928 C-111.03193278 44.59349672 -108.80652909 44.56647685 -106.58106995 44.53796387 C-101.84576788 44.47837131 -97.11039837 44.42627723 -92.375 44.375 C-86.90786244 44.31546092 -81.440791 44.25275568 -75.97377205 44.18312073 C-73.79881581 44.15688594 -71.62385173 44.13585921 -69.44883728 44.1151123 C-66.79691175 44.0873023 -64.14971565 44.03324908 -61.49807739 43.96516418 C-59.27434205 43.90885273 -57.04918443 43.88644003 -54.82492065 43.91508484 C-48.17859873 43.77619841 -44.89804006 41.9687766 -40.22955322 37.27436829 C-39.49895691 36.48902206 -38.7683606 35.70367584 -38.015625 34.89453125 C-37.22653748 34.08892258 -36.43744995 33.2833139 -35.62445068 32.45329285 C-33.12075866 29.88735733 -30.65392228 27.2892306 -28.1875 24.6875 C-25.69933107 22.11176026 -23.20410236 19.54302588 -20.70770264 16.9752655 C-19.16183532 15.37992385 -17.62210942 13.7785999 -16.08966064 12.17036438 C-4.27937349 -0.182101 -4.27937349 -0.182101 0 0 Z " fill="#5B5B59" transform="translate(458.9375,199.125)"/>
<path d="M0 0 C0.46470703 0.39904541 0.92941406 0.79809082 1.40820312 1.20922852 C2.02630859 1.73959717 2.64441406 2.26996582 3.28125 2.81640625 C3.89033203 3.33920166 4.49941406 3.86199707 5.12695312 4.40063477 C6.90975667 5.92294264 8.7042781 7.43048109 10.5 8.9375 C13.97685268 11.96114426 17.1864731 15.20028901 20.40576172 18.49145508 C28.96694977 27.22352725 36.83536761 34.94257902 49 38 C50.00740234 38.28810547 50.00740234 38.28810547 51.03515625 38.58203125 C63.00227785 41.69124602 76.19231267 41.16208601 88.46484375 41.31640625 C89.87830598 41.33705812 91.29176319 41.35805616 92.70521545 41.37937927 C96.36941375 41.43375257 100.03365955 41.48352382 103.69793701 41.53222656 C107.45947336 41.58307337 111.2209434 41.63842458 114.98242188 41.69335938 C122.32155793 41.79989915 129.66075033 41.90156114 137 42 C136.835 43.11375 136.67 44.2275 136.5 45.375 C135.9544542 48.72032033 135.9544542 48.72032033 136 51 C136.70382812 51.13535156 137.40765625 51.27070313 138.1328125 51.41015625 C150.70276071 54.15060188 162.1770739 59.43015952 171 69 C171 69.33 171 69.66 171 70 C165.71306632 69.44600048 161.23469566 68.07985261 156.3125 66.0625 C140.09514424 59.73660765 123.14853632 58.82217544 106.7265625 65.2890625 C100.89883907 68.03411107 96.13859915 71.18136539 91.5234375 75.6796875 C90 77 90 77 88 77 C87.72671875 77.58910156 87.4534375 78.17820312 87.171875 78.78515625 C86.03644049 80.93112748 84.79427349 82.5735785 83.25 84.4375 C74.87690346 95.43745035 71.59993315 107.6608763 71.6875 121.25 C71.69313965 122.17095459 71.6987793 123.09190918 71.70458984 124.04077148 C71.9990156 140.65833584 77.5025318 154.83571906 89 167 C93.66817973 171.47332876 98.57775567 174.73481062 104.3125 177.6875 C105.05363037 178.07542725 105.79476074 178.46335449 106.55834961 178.86303711 C111.8691826 181.57898169 117.14316573 183.74804771 123 185 C123 185.66 123 186.32 123 187 C124.11375 187.1546875 124.11375 187.1546875 125.25 187.3125 C128.40154397 188.10038599 129.77921831 188.61787947 132 191 C132.19801234 193.80001822 132.17267389 196.2810735 132 199.0625 C131.39520077 220.02549063 134.849439 247.37669453 143.14794922 266.66870117 C144 269 144 269 143 272 C139.66597391 264.79179833 136.80172317 257.4291594 134 250 C133.05640625 251.52367187 133.05640625 251.52367187 132.09375 253.078125 C110.96637803 287.10007872 110.96637803 287.10007872 100.5625 289.9375 C99.2940625 289.9684375 99.2940625 289.9684375 98 290 C97.67 289.67 97.34 289.34 97 289 C97.45043136 282.83948492 98.97431066 277.39557336 100.9375 271.5625 C106.18493885 255.82018344 109.96497355 237.78646473 102.7265625 222.015625 C99.27651637 215.98975258 95.19505221 210.51527228 91 205 C80.62701406 191.2488908 71.63406148 176.90129617 63 162 C62.54077148 161.20754883 62.08154297 160.41509766 61.60839844 159.59863281 C59.37486127 155.72377093 57.1855597 151.82740768 55.04150391 147.90234375 C54.31711613 146.57922384 53.58720762 145.25911763 52.85302734 143.94140625 C46.26577144 132.10768736 40.67146007 120.23264375 37.5 107 C34.49094629 95.47962293 24.22921474 87.3294828 14.34936523 81.46923828 C2.75875172 74.88691456 -9.07231865 69.97875188 -22.19116211 67.4675293 C-27.04884616 66.48034702 -30.11070627 64.92455472 -34 62 C-33.67 60.35 -33.34 58.7 -33 57 C-31.58398286 56.51891725 -30.16715563 56.04021859 -28.75 55.5625 C-27.96109375 55.29566406 -27.1721875 55.02882813 -26.359375 54.75390625 C-22.2173936 53.43039233 -18.64359743 52.86546145 -14.2734375 52.7890625 C-13.15839844 52.76070312 -12.04335937 52.73234375 -10.89453125 52.703125 C-8.57176494 52.65156526 -6.24882777 52.60714449 -3.92578125 52.5703125 C7.94058871 52.4234453 7.94058871 52.4234453 18 47 C18.00799257 44.4702286 18.00799257 44.4702286 17 42 C15.11473236 40.53588179 15.11473236 40.53588179 12.75 39.5625 C6.2901305 36.26078892 3.13424122 32.38571937 0.60644531 25.4230957 C-0.58145702 20.67674683 -0.30611238 15.86006607 -0.1875 11 C-0.17396484 9.93910156 -0.16042969 8.87820312 -0.14648438 7.78515625 C-0.11140879 5.18956313 -0.06225844 2.59505933 0 0 Z " fill="#838281" transform="translate(192,203)"/>
<path d="M0 0 C1.06734375 -0.03222656 2.1346875 -0.06445312 3.234375 -0.09765625 C12.22740692 -0.1087042 17.23145552 2.74130492 23.6796875 8.78515625 C25.27104866 10.71299925 26.84339781 12.64927468 28.375 14.625 C29.014375 15.388125 29.65375 16.15125 30.3125 16.9375 C32.56974518 22.64700251 32.13742224 29.18772217 30.125 34.9375 C26.47085253 43.26083591 20.58690947 49.41994724 13.25 54.625 C6.22154453 59.79098275 2.96961388 66.09323376 1.375 74.625 C1.24343774 76.91525723 1.1408611 79.20730588 1.0625 81.5 C0.63996559 88.8026702 -1.10769971 94.77963213 -5.625 100.625 C-8.49916039 102.6276092 -11.25855903 103.72087014 -14.625 104.625 C-15.615 104.955 -16.605 105.285 -17.625 105.625 C-27.09881432 106.30732458 -34.79373207 105.69099696 -42.875 100.5625 C-49.41196703 94.44433587 -50.93070348 86.98715823 -51.328125 78.3984375 C-51.77546027 74.21938435 -53.12404696 71.98342266 -55.625 68.625 C-56.388125 68.17125 -57.15125 67.7175 -57.9375 67.25 C-59.625 65.625 -59.625 65.625 -59.68530273 63.77001953 C-59.07447135 58.28023914 -57.81728613 53.81744634 -55.375 48.875 C-55.03073975 48.16400146 -54.68647949 47.45300293 -54.33178711 46.72045898 C-47.61124689 33.24316093 -39.81541341 18.91930609 -28.625 8.625 C-27.944375 7.96628906 -27.26375 7.30757813 -26.5625 6.62890625 C-18.34839134 1.02539862 -9.74007544 -0.0592462 0 0 Z " fill="#5B5B59" transform="translate(447.625,341.375)"/>
<path d="M0 0 C3.46087909 1.91259108 6.16870646 4.25686029 9 7 C10.08667969 8.00740234 10.08667969 8.00740234 11.1953125 9.03515625 C21.17190445 18.58838728 21.17190445 18.58838728 21.37890625 25.5703125 C21.28053327 31.52133726 19.23174703 35.83830738 16.4375 41 C15.98294434 41.87140625 15.52838867 42.7428125 15.06005859 43.640625 C4.95037008 62.69747699 4.95037008 62.69747699 -2.22241211 66.03369141 C-11.89520532 68.59421628 -21.5926346 68.45389285 -31.52709961 68.39111328 C-34.55953836 68.37501572 -37.59064827 68.39103368 -40.62304688 68.41015625 C-54.17546833 68.42519338 -67.07549557 68.23970335 -77.578125 58.54296875 C-86.6666691 48.71299079 -92.78604128 36.10400977 -92.34765625 22.609375 C-91.60753724 17.05432443 -89.26283115 12.87082609 -85.125 9.125 C-78.66693319 4.73351457 -72.63243885 4.3268541 -65 5 C-60.04086661 5.97475075 -56.03168291 7.27782196 -51.875 10.1875 C-48.15531474 12.53251897 -45.22326178 12.62594857 -41 12 C-34.84879807 10.54168059 -29.23479771 8.30090421 -23.56762695 5.53320312 C-7.33222024 -2.37801738 -7.33222024 -2.37801738 0 0 Z " fill="#848382" transform="translate(362,162)"/>
<path d="M0 0 C3.20625866 2.2068182 5.88259998 4.66958419 8.5 7.5625 C8.95310547 8.06104492 9.40621094 8.55958984 9.87304688 9.07324219 C15.90289632 15.88384903 20.13592919 23.62184719 24.5 31.5625 C24.90669922 32.2942041 25.31339844 33.0259082 25.73242188 33.77978516 C31.44950532 44.2446764 34.76466146 53.13101353 31.859375 65.23046875 C27.75118932 76.97614507 18.55650352 90.57266321 7.5 96.625 C3.10995026 98.53517431 -0.7849494 100.00550769 -5.5 98.5625 C-13.34647407 93.98874332 -19.85283484 87.40285061 -22.9375 78.81225586 C-23.91909993 74.88628217 -23.54756416 71.06898469 -23.3125 67.0625 C-22.95888258 59.62734042 -22.95888258 59.62734042 -25.75 52.9375 C-29.54007639 49.03039037 -34.19246401 45.96349259 -38.58984375 42.78125 C-46.05286215 37.09132457 -51.58826062 30.07369537 -52.9140625 20.60546875 C-53.2502749 13.57155145 -52.18576007 8.86668525 -47.5 3.5625 C-34.87721611 -10.21363471 -15.23364058 -9.03157678 0 0 Z " fill="#848382" transform="translate(224.5,348.4375)"/>
<path d="M0 0 C4.01850296 2.51970997 6.48479223 4.8577029 8.16796875 9.359375 C9.75673715 22.09622417 6.81232783 32.26173748 1.29296875 43.609375 C0.96554687 44.28355469 0.638125 44.95773438 0.30078125 45.65234375 C-2.2285409 50.6418269 -4.97835325 55.65360507 -9.91015625 58.6015625 C-15.46422909 60.21983552 -20.88800207 60.71293914 -26.64453125 60.859375 C-27.37381836 60.89015137 -28.10310547 60.92092773 -28.85449219 60.95263672 C-32.84101585 60.953554 -34.62838647 60.52121191 -37.78125 58.015625 C-42.06743626 52.46399327 -41.12674658 45.82237115 -41.18212891 39.12036133 C-41.19854982 37.67065218 -41.22565283 36.22101919 -41.26416016 34.77172852 C-41.55449077 23.76314902 -40.21847348 14.16398756 -33.64453125 4.921875 C-24.12702298 -3.74963253 -11.75567628 -5.59976749 0 0 Z " fill="#5B5B59" transform="translate(367.83203125,169.640625)"/>
<path d="M0 0 C0.680625 0.28875 1.36125 0.5775 2.0625 0.875 C2.69944324 13.50770767 1.86672979 25.33716522 -5.9375 35.875 C-7.47367606 37.5454301 -9.03612708 39.19211225 -10.625 40.8125 C-14.39390225 44.83513137 -14.39390225 44.83513137 -16.0625 49.9375 C-16.27398017 52.76398816 -16.27398017 52.76398816 -14.9375 53.875 C-10.79330082 54.08935513 -7.71847026 54.12001028 -3.75 52.875 C6.91470344 50.07770074 17.90524583 51.99416232 28.0625 55.875 C32.80442902 59.16034189 32.80442902 59.16034189 33.875 62.125 C33.936875 62.7025 33.99875 63.28 34.0625 63.875 C26.5485153 70.63758623 18.7116064 73.43656376 9.0625 76.125 C-7.51728418 80.97323059 -24.38222378 87.61264753 -33.9375 102.875 C-35.5909599 106.01657382 -36.12701104 108.97513902 -36.71875 112.4375 C-37.80461777 117.88352941 -39.74304375 122.53542576 -42.1875 127.5 C-42.61933594 128.39170898 -43.05117188 129.28341797 -43.49609375 130.20214844 C-48.57707708 140.48153277 -54.4248367 150.31308179 -60.3125 160.14501953 C-61.75154994 162.56260614 -63.16502083 164.99182643 -64.5625 167.43359375 C-74.07178534 184.01215511 -84.20994913 201.4172045 -97.9375 214.875 C-96.4778174 209.10013073 -93.45360851 205.11108834 -89.9375 200.4375 C-88.75192738 198.82697569 -87.56835734 197.21497542 -86.38671875 195.6015625 C-85.80067871 194.80266602 -85.21463867 194.00376953 -84.61083984 193.18066406 C-76.64411474 182.20346069 -69.62701964 170.66370976 -62.9375 158.875 C-62.44958984 158.0195459 -61.96167969 157.1640918 -61.45898438 156.28271484 C-54.70960166 144.38982223 -48.64057309 132.44183094 -43.66040039 119.69750977 C-43.04841587 118.15463087 -42.38333831 116.63297413 -41.70703125 115.1171875 C-40.85906854 112.64647381 -40.93538156 111.13110133 -41.25 108.5625 C-41.33562116 104.59099554 -40.52410851 102.75700537 -37.9375 99.75 C-36.62743143 98.43474303 -35.29384064 97.14248595 -33.9375 95.875 C-33.38191406 95.30136719 -32.82632813 94.72773438 -32.25390625 94.13671875 C-20.21368006 82.47191164 -2.35556473 75.51766602 13.5 71.25 C15.60504841 70.68251883 17.70802893 70.10729633 19.80859375 69.5234375 C20.72310303 69.27770996 21.6376123 69.03198242 22.57983398 68.77880859 C25.22872882 67.8144848 27.01676848 66.81406785 29.0625 64.875 C29.0625 63.885 29.0625 62.895 29.0625 61.875 C19.63225803 58.11268294 10.10823827 58.41386474 0.14038086 58.36376953 C-2.03562636 58.34797882 -4.2109273 58.31498733 -6.38671875 58.28125 C-7.66893311 58.27416016 -8.95114746 58.26707031 -10.2722168 58.25976562 C-14.35325363 57.83135598 -18.90517864 56.90732136 -21.9375 53.875 C-21.78840276 49.62315806 -21.40749394 47.43627045 -18.64453125 44.13671875 C-17.68933594 43.28722656 -16.73414063 42.43773437 -15.75 41.5625 C-8.00637827 34.34363608 -2.51956761 26.44187891 -1.6875 15.625 C-1.73661922 12.65947166 -1.73661922 12.65947166 -3.9375 9.875 C-6.76093761 9.81737882 -8.35686747 9.85078009 -10.9375 10.875 C-14.59878525 14.49070908 -17.25845355 18.83645837 -20.0625 23.125 C-25.30170385 30.80916564 -33.34012717 37.26410341 -41.9375 40.875 C-42.9275 40.38 -42.9275 40.38 -43.9375 39.875 C-39.2271423 35.13915592 -34.51276467 30.40734074 -29.7956543 25.67822266 C-28.19350229 24.0710614 -26.59225141 22.46300127 -24.99194336 20.85400391 C-22.68322889 18.53307401 -20.37122571 16.21546316 -18.05859375 13.8984375 C-17.35101425 13.18569672 -16.64343475 12.47295593 -15.91441345 11.73861694 C-4.00662418 -0.17049465 -4.00662418 -0.17049465 0 0 Z " fill="#848381" transform="translate(458.9375,199.125)"/>
<path d="M0 0 C0.33 0 0.66 0 1 0 C1.01981934 0.74685059 1.03963867 1.49370117 1.06005859 2.26318359 C1.15508211 5.63415605 1.26485259 9.00448929 1.375 12.375 C1.4059375 13.550625 1.436875 14.72625 1.46875 15.9375 C1.52675781 17.61972656 1.52675781 17.61972656 1.5859375 19.3359375 C1.6173584 20.37282715 1.6487793 21.4097168 1.68115234 22.47802734 C1.75954472 25.16809835 1.75954472 25.16809835 4 27 C6.62134882 27.22888647 6.62134882 27.22888647 9.6796875 27.08984375 C10.83726562 27.06986328 11.99484375 27.04988281 13.1875 27.02929688 C15.60689712 26.96906824 18.0261824 26.90412327 20.4453125 26.83398438 C33.23927671 26.62967548 43.91211547 28.78967126 54 37 C58.88231364 41.97306296 63.22486524 48.17356264 65 55 C64.59375 57.26171875 64.59375 57.26171875 64 59 C63.52820313 58.00419922 63.52820313 58.00419922 63.046875 56.98828125 C57.84240282 46.25013836 51.97089619 40.5714112 40.75 36.125 C32.32358793 33.58961938 23.06006588 34.80926252 14.4453125 35.76171875 C2.73366347 36.90294973 2.73366347 36.90294973 -2 34.4375 C-6.88702278 28.48144098 -7.49150393 23.37019709 -7.29296875 15.81640625 C-6.92754551 12.30347086 -6.04677874 9.88065156 -4 7 C-3.01 6.34 -2.02 5.68 -1 5 C-0.27034634 2.43717258 -0.27034634 2.43717258 0 0 Z " fill="#838281" transform="translate(343,108)"/>
<path d="M0 0 C0.99 0 1.98 0 3 0 C3.66440183 10.89342165 -3.04459774 20.67088514 -9.921875 28.703125 C-10.60765625 29.46109375 -11.2934375 30.2190625 -12 31 C-12.66515625 31.75796875 -13.3303125 32.5159375 -14.015625 33.296875 C-21.74784756 41.60185478 -34.21064218 51.6290782 -45.9375 52.1875 C-46.948125 52.125625 -47.95875 52.06375 -49 52 C-49 51.01 -49 50.02 -49 49 C-47.54462432 48.16151196 -46.08559627 47.32936066 -44.625 46.5 C-43.81289063 46.0359375 -43.00078125 45.571875 -42.1640625 45.09375 C-40 44 -40 44 -38 44 C-38 43.34 -38 42.68 -38 42 C-36.98292969 41.50693359 -36.98292969 41.50693359 -35.9453125 41.00390625 C-22.45897561 34.11130471 -13.7161397 24.43227941 -7 11 C-6.34 11 -5.68 11 -5 11 C-4.731875 10.113125 -4.46375 9.22625 -4.1875 8.3125 C-3.06886949 5.19210962 -1.96196863 2.66827733 0 0 Z " fill="#7F7E7D" transform="translate(387,338)"/>
<path d="M0 0 C0 5.29167384 -3.72408299 8.85305609 -7.25 12.5 C-9.73183323 14.92857501 -12.29492254 16.99224693 -15.125 19 C-22.15345547 24.16598275 -25.40538612 30.46823376 -27 39 C-27.13156226 41.29025723 -27.2341389 43.58230588 -27.3125 45.875 C-27.73503441 53.1776702 -29.48269971 59.15463213 -34 65 C-36.87416039 67.0026092 -39.63355903 68.09587014 -43 69 C-44.485 69.495 -44.485 69.495 -46 70 C-55.37980277 70.67555366 -64.0497394 70.46248077 -71.5625 64.3125 C-72.366875 63.549375 -73.17125 62.78625 -74 62 C-73.01 61.505 -73.01 61.505 -72 61 C-71.2884375 61.30292969 -70.576875 61.60585938 -69.84375 61.91796875 C-60.55130661 65.4536924 -47.10023576 63.2567854 -38 60 C-34.33467095 57.80080257 -33.36183513 56.17877843 -32.12109375 52.13671875 C-31.0908391 47.90122741 -30.25920747 43.65794967 -29.5859375 39.3515625 C-27.11670735 24.39093277 -18.73038728 15.41665027 -7.0546875 6.609375 C-4.46962805 4.58457559 -2.2457172 2.39060218 0 0 Z " fill="#848381" transform="translate(476,377)"/>
<path d="M0 0 C0.763125 0.639375 1.52625 1.27875 2.3125 1.9375 C6.48157697 5.13702419 9.39390282 5.09024448 14.50390625 4.95703125 C15.80263672 4.93576172 17.10136719 4.91449219 18.43945312 4.89257812 C20.49111282 4.85577159 22.5418955 4.81310201 24.59301758 4.75317383 C37.42214651 4.39641967 46.24929066 6.55518923 56 15 C57.7041054 16.62836738 59.38025441 18.28769752 61 20 C61.598125 20.598125 62.19625 21.19625 62.8125 21.8125 C63.204375 22.204375 63.59625 22.59625 64 23 C63.67 23.66 63.34 24.32 63 25 C62.56171875 24.55269531 62.1234375 24.10539062 61.671875 23.64453125 C53.29173382 15.65614464 43.19509552 11.79461638 31.71875 12.0078125 C30.05599565 12.02532497 28.39323484 12.04223362 26.73046875 12.05859375 C24.11000804 12.08959638 21.48986814 12.12517868 18.86962891 12.17138672 C16.34012806 12.21366382 13.81100714 12.23714537 11.28125 12.2578125 C10.49681519 12.27643341 9.71238037 12.29505432 8.9041748 12.3142395 C3.49417438 12.33980901 3.49417438 12.33980901 1.00073242 10.62524414 C-0.35539565 8.42281804 -0.29903007 6.87769167 -0.1875 4.3125 C-0.16042969 3.50425781 -0.13335937 2.69601562 -0.10546875 1.86328125 C-0.07066406 1.24839844 -0.03585937 0.63351562 0 0 Z " fill="#858482" transform="translate(439,311)"/>
<path d="M0 0 C5.82329803 2.50451165 7.86599915 7.20279792 10.171875 12.890625 C12.1966994 18.84771707 13.16207354 24.1457499 13.3125 30.4375 C13.91733311 43.47501376 20.9495217 53.09318008 30 62 C23.09348763 62 15.34817802 57.25111586 10 53 C7.64791491 49.79261124 7.74567234 46.8996908 8 43 C8.33 42.34 8.66 41.68 9 41 C10.51529535 26.86552373 5.94344353 12.6419967 0 0 Z " fill="#838281" transform="translate(461,184)"/>
<path d="M0 0 C0.86625 0.00386719 1.7325 0.00773437 2.625 0.01171875 C5 0.3125 5 0.3125 8 2.3125 C7.32453125 2.41046875 6.6490625 2.5084375 5.953125 2.609375 C-0.97857419 3.67358138 -0.97857419 3.67358138 -6 8.3125 C-7.33574868 10.98399737 -7.44450567 13.47291014 -7.8125 16.4375 C-9.35102637 26.49879837 -12.98786916 32.89454957 -21 39.3125 C-26.18970637 42.52053445 -33.89081545 47.17528252 -40.1953125 45.8515625 C-40.79085938 45.67367187 -41.38640625 45.49578125 -42 45.3125 C-41.28457031 44.95800781 -40.56914062 44.60351562 -39.83203125 44.23828125 C-26.94941135 37.35532909 -15.81072049 26.93891801 -10 13.3125 C-9.30012164 10.65078644 -8.78958382 8.10450804 -8.484375 5.37109375 C-7.35787841 0.58348323 -4.55371659 -0.08809273 0 0 Z " fill="#848382" transform="translate(475,432.6875)"/>
<path d="M0 0 C2.1253148 5.70917897 -0.83288512 11.6540148 -3 17 C-5.54616273 21.17775551 -8.76135566 23.92613084 -12.75 26.6875 C-16.39728323 29.18625376 -16.39728323 29.18625376 -18 33 C-18.62796929 37.12665533 -18.23217551 38.6411833 -15.9375 42.1875 C-10.50172316 47.98768647 -3.52285638 48.56104057 4 49 C4 49.33 4 49.66 4 50 C-5.02503863 50.83737472 -10.87662093 49.73406755 -18 44 C-21.7437391 40.72048455 -23.77245649 38.63793715 -24.47265625 33.59765625 C-23.86101598 28.94211338 -22.39368703 27.81753412 -18.8125 24.875 C-10.53582974 17.93899521 -2.77446642 10.82041902 0 0 Z " fill="#848382" transform="translate(511,367)"/>
<path d="M0 0 C3.22238743 0.26853229 4.7416643 0.77118838 7.1875 2.9375 C9.26533653 6.44832724 9.76718658 9.3463355 10.45703125 13.3203125 C13.09351147 26.33200627 21.46291556 36.23564384 32.28515625 43.54296875 C34.17195448 44.73095282 36.0690392 45.88558911 38 47 C35 48 35 48 32.58203125 47.06640625 C19.84217666 40.14843161 10.4470937 29.25776392 5.0625 15.6875 C4.03935635 12.13658968 3.20223172 8.61200876 2.52734375 4.98046875 C2.03485192 2.70351912 2.03485192 2.70351912 0 0 Z " fill="#848382" transform="translate(374,429)"/>
<path d="M0 0 C0.33 0 0.66 0 1 0 C1.04898437 1.12277344 1.09796875 2.24554688 1.1484375 3.40234375 C1.8083831 17.2010661 4.41274669 27.54322966 9.9921875 40.26171875 C12.00316076 45.1359349 12.52709645 48.81688493 12 54 C10.875 56.0625 10.875 56.0625 9 57 C4.74140837 56.81878333 2.17999377 55.81307141 -1 53 C1.97 53 4.94 53 8 53 C9.46740161 48.37597863 8.43142383 46.10280715 6.25 41.875 C1.10243801 31.85474584 -0.45565165 22.54049083 -0.1875 11.3125 C-0.17396484 10.21744141 -0.16042969 9.12238281 -0.14648438 7.99414062 C-0.11156837 5.32888586 -0.06253717 2.66472496 0 0 Z " fill="#878685" transform="translate(352,439)"/>
<path d="M0 0 C0.33 0.66 0.66 1.32 1 2 C0.30190548 4.02653598 -0.48480364 6.0228549 -1.3125 8 C-4.99317957 17.27816734 -6.28372488 26.08524444 -7 36 C-8.98 34.68 -10.96 33.36 -13 32 C-12.55518531 25.27466746 -11.19574033 20.31260185 -8.1875 14.3125 C-7.84396484 13.59255859 -7.50042969 12.87261719 -7.14648438 12.13085938 C-5.06163107 7.83989488 -2.73735841 3.90611819 0 0 Z " fill="#858483" transform="translate(401,375)"/>
<path d="M0 0 C0.66 0.33 1.32 0.66 2 1 C1.61070312 1.41507813 1.22140625 1.83015625 0.8203125 2.2578125 C-2.59589046 6.02035862 -5.67497453 9.88747627 -8.56054688 14.06347656 C-16.42618306 25.44472081 -25.24008434 33.76623744 -37 41 C-37.66 40.67 -38.32 40.34 -39 40 C-38.20078125 39.35675781 -37.4015625 38.71351563 -36.578125 38.05078125 C-25.42718474 28.93288535 -15.96316698 18.72223033 -7.03515625 7.4375 C-4.83034751 4.79680776 -2.46336508 2.39910339 0 0 Z " fill="#848382" transform="translate(445,187)"/>
<path d="M0 0 C5.04951631 1.66883503 7.05057267 3.85982923 9.82421875 8.2890625 C11.92214504 13.12614171 11.91202813 17.85675939 11 23 C9 26.25 9 26.25 7 28 C6.34 27.67 5.68 27.34 5 27 C5.226875 26.01 5.45375 25.02 5.6875 24 C6.25714943 20.11389842 5.28713798 17.66199902 3.76171875 14.12109375 C2.67959907 11.10780663 2.49430415 8.16005588 2.30859375 4.98046875 C2.09278491 2.68419531 2.09278491 2.68419531 0 0 Z " fill="#838281" transform="translate(516,417)"/>
<path d="M0 0 C1.27617187 -0.01836914 1.27617187 -0.01836914 2.578125 -0.03710938 C7.04118112 -0.04753708 10.57046621 0.07680648 14.625 2.1875 C11.27380481 4.42163013 10.2072245 4.42597762 6.30078125 4.3828125 C4.75874023 4.37314453 4.75874023 4.37314453 3.18554688 4.36328125 C2.11369141 4.34652344 1.04183594 4.32976562 -0.0625 4.3125 C-1.14595703 4.30347656 -2.22941406 4.29445313 -3.34570312 4.28515625 C-6.0223571 4.2615734 -8.69856797 4.22866126 -11.375 4.1875 C-11.705 3.1975 -12.035 2.2075 -12.375 1.1875 C-8.23096378 -0.19384541 -4.33993462 0.00325821 0 0 Z " fill="#AEADAB" transform="translate(319.375,256.8125)"/>
<path d="M0 0 C0.66 0.33 1.32 0.66 2 1 C-9.55 12.55 -21.1 24.1 -33 36 C-33 32.30213526 -32.27595512 31.86969671 -29.78125 29.26953125 C-29.09546875 28.54830078 -28.4096875 27.82707031 -27.703125 27.08398438 C-26.97609375 26.33439453 -26.2490625 25.58480469 -25.5 24.8125 C-24.45585938 23.71711914 -24.45585938 23.71711914 -23.390625 22.59960938 C-10.58256478 9.21044272 -10.58256478 9.21044272 -4.5625 4.0625 C-2.22875842 2.08787121 -2.22875842 2.08787121 0 0 Z " fill="#9F9E9C" transform="translate(124,90)"/>
<path d="M0 0 C0.66 0 1.32 0 2 0 C3.30683397 5.72856049 3.18405288 11.33773001 3.1875 17.1875 C3.19974609 18.29287109 3.21199219 19.39824219 3.22460938 20.53710938 C3.22654297 21.59091797 3.22847656 22.64472656 3.23046875 23.73046875 C3.23457764 24.69364014 3.23868652 25.65681152 3.24291992 26.64916992 C3 29 3 29 1 31 C-0.43509221 28.12981559 -0.11158506 25.66456277 -0.09765625 22.4609375 C-0.09443359 21.15898437 -0.09121094 19.85703125 -0.08789062 18.515625 C-0.07953466 17.13541601 -0.07106971 15.75520768 -0.0625 14.375 C-0.05748501 12.98698074 -0.0529221 11.59895978 -0.04882812 10.2109375 C-0.03700976 6.80724868 -0.02053434 3.40364561 0 0 Z " fill="#B0AFAC" transform="translate(258,309)"/>
<path d="M0 0 C-3.34241061 1.9059608 -6.5084629 2.62295811 -10.27734375 3.33203125 C-11.51419922 3.57373047 -12.75105469 3.81542969 -14.02539062 4.06445312 C-16.59739013 4.55625333 -19.17029013 5.04337142 -21.74414062 5.52539062 C-29.44074678 7.03928166 -36.28720299 9.04262095 -43.49047852 12.1159668 C-44.31862061 12.40769775 -45.1467627 12.69942871 -46 13 C-46.66 12.67 -47.32 12.34 -48 12 C-35.68058314 2.94899986 -15.25815562 -0.62278186 0 0 Z " fill="#848482" transform="translate(495,282)"/>
<path d="M0 0 C0.86625 1.11375 0.86625 1.11375 1.75 2.25 C2.4925 3.1575 3.235 4.065 4 5 C4.53625 5.7425 5.0725 6.485 5.625 7.25 C9.35593757 9.9991119 13.47065007 9.82712405 18 10 C13.53891226 12.31351815 9.23502327 14.24293731 4.125 13.6875 C2 13 2 13 1 12 C0.76572222 9.98405418 0.58663876 7.961526 0.4375 5.9375 C0.35371094 4.83277344 0.26992188 3.72804688 0.18359375 2.58984375 C0.09271484 1.30787109 0.09271484 1.30787109 0 0 Z " fill="#858483" transform="translate(492,440)"/>
<path d="M0 0 C5.42481812 0.13562045 8.35867866 2.33857514 12.1640625 5.91796875 C17.28165786 11.72153966 18.46404461 17.54009604 18.140625 25.12890625 C18.07101562 26.05509766 18.07101562 26.05509766 18 27 C17.67 27 17.34 27 17 27 C16.979375 25.72125 16.95875 24.4425 16.9375 23.125 C16.06892854 15.35679046 10.95071119 9.46578574 5.1875 4.5 C4.12648122 3.66478156 3.06420886 2.83114993 2 2 C1.34 1.34 0.68 0.68 0 0 Z " fill="#878685" transform="translate(462,343)"/>
<path d="M0 0 C0.66 0.33 1.32 0.66 2 1 C1.43152344 1.43570312 0.86304688 1.87140625 0.27734375 2.3203125 C-2.15949863 4.19981363 -4.58268801 6.09545116 -7 8 C-7.65355469 8.51304687 -8.30710937 9.02609375 -8.98046875 9.5546875 C-13.13953285 12.95171557 -16.04043084 16.5158043 -19 21 C-19 15.08037266 -13.42427642 10.30405722 -9.5 6.1875 C-6.60393567 3.38133567 -3.8239435 1.4228627 0 0 Z " fill="#838280" transform="translate(428,344)"/>
</svg>
