<?xml version="1.0" encoding="UTF-8"?>
<svg version="1.1" xmlns="http://www.w3.org/2000/svg" width="640" height="640">
<path d="M0 0 C0.90717773 -0.00067474 1.81435547 -0.00134949 2.74902344 -0.00204468 C17.81825236 0.01569124 32.48647833 0.73711762 47.375 3.25 C48.39867676 3.42160645 49.42235352 3.59321289 50.47705078 3.77001953 C121.54644435 16.09018241 190.68639134 52.43629325 237.375 108.25 C238.0553833 109.05969238 238.0553833 109.05969238 238.74951172 109.88574219 C284.21519541 164.20045156 314.0106538 233.80216918 315.375 305.25 C315.39546387 306.16716797 315.41592773 307.08433594 315.43701172 308.02929688 C316.96744224 387.81405476 291.49952466 460.10940081 239.375 520.25 C238.68277344 521.05566406 237.99054687 521.86132812 237.27734375 522.69140625 C227.39052593 533.94980574 216.77118936 544.98069963 204.95703125 554.2265625 C202.14895527 556.42714247 199.45757665 558.73962639 196.75 561.0625 C135.94790431 611.62671068 59.20401929 630.15901057 -18.625 627.25 C-19.88070801 627.20359375 -21.13641602 627.1571875 -22.43017578 627.109375 C-71.1878083 625.19554464 -71.1878083 625.19554464 -93.66162109 616.96826172 C-95.80399775 616.18451736 -97.95768427 615.43797886 -100.11328125 614.69140625 C-136.45394384 601.90842869 -169.98153227 582.81691057 -199.625 558.25 C-200.63304687 557.42757812 -201.64109375 556.60515625 -202.6796875 555.7578125 C-216.90988782 543.97748481 -230.3445954 530.89768955 -241.625 516.25 C-242.5695638 515.09100936 -243.51774893 513.93496445 -244.46875 512.78125 C-251.44187791 504.28816687 -257.75913289 495.54070504 -263.625 486.25 C-263.99157715 485.67378906 -264.3581543 485.09757812 -264.73583984 484.50390625 C-287.44129178 448.56634033 -302.05593351 408.99937728 -309.625 367.25 C-309.83672852 366.10660156 -310.04845703 364.96320313 -310.26660156 363.78515625 C-313.36916057 346.30068744 -314.01161652 329.03932774 -314.0625 311.3125 C-314.06876404 310.29539948 -314.07502808 309.27829895 -314.08148193 308.2303772 C-314.15817279 288.55519806 -312.30968816 269.0580596 -308.125 249.8125 C-307.7542334 248.10477417 -307.7542334 248.10477417 -307.37597656 246.36254883 C-297.17111309 201.80191264 -276.9316812 160.1015622 -248.625 124.25 C-247.91214844 123.34507812 -247.19929688 122.44015625 -246.46484375 121.5078125 C-241.65357725 115.51706444 -236.57774317 109.82153911 -231.34765625 104.19921875 C-227.95105334 100.54366571 -224.67633369 96.78100945 -221.40234375 93.015625 C-219.625 91.25 -219.625 91.25 -217.625 91.25 C-217.625 90.59 -217.625 89.93 -217.625 89.25 C-216.2265625 87.83984375 -216.2265625 87.83984375 -214.25 86.1875 C-211.15658218 83.5675096 -208.15380568 80.88778556 -205.1875 78.125 C-187.83218213 62.53686495 -168.00546218 49.23639365 -147.46191406 38.24267578 C-145.67749818 37.27837023 -143.91254164 36.27832419 -142.1484375 35.27734375 C-99.26105219 11.13857495 -48.89425334 0.03280523 0 0 Z M-52.484375 274.3828125 C-61.61471886 286.61214169 -65.16036442 300.08968841 -65.0625 315.1875 C-65.08248047 316.27740234 -65.10246094 317.36730469 -65.12304688 318.49023438 C-65.11256291 336.13475402 -56.97935206 348.2390472 -45.0625 360.375 C-33.1530828 372.17863677 -19.80975164 382.29419025 -2.4375 383.28125 C16.31535196 383.07288498 34.54900323 372.9874529 47.6875 360.03125 C59.81765325 347.47795187 67.05402148 332.96845318 67.75 315.25 C67.14591902 299.2287219 61.17712084 285.64441726 51.375 273.25 C50.6325 272.21875 49.89 271.1875 49.125 270.125 C36.09851254 256.50639947 19.11378203 249.47866546 0.375 248.875 C-20.59222698 249.60380735 -38.7470291 258.58006144 -52.484375 274.3828125 Z " fill="#858583" transform="translate(321.625,6.75)"/>
<path d="M0 0 C0.90717773 -0.00067474 1.81435547 -0.00134949 2.74902344 -0.00204468 C17.81825236 0.01569124 32.48647833 0.73711762 47.375 3.25 C48.39867676 3.42160645 49.42235352 3.59321289 50.47705078 3.77001953 C121.54644435 16.09018241 190.68639134 52.43629325 237.375 108.25 C238.0553833 109.05969238 238.0553833 109.05969238 238.74951172 109.88574219 C284.21519541 164.20045156 314.0106538 233.80216918 315.375 305.25 C315.39546387 306.16716797 315.41592773 307.08433594 315.43701172 308.02929688 C316.96744224 387.81405476 291.49952466 460.10940081 239.375 520.25 C238.68277344 521.05566406 237.99054687 521.86132812 237.27734375 522.69140625 C227.39052593 533.94980574 216.77118936 544.98069963 204.95703125 554.2265625 C202.14895527 556.42714247 199.45757665 558.73962639 196.75 561.0625 C135.94790431 611.62671068 59.20401929 630.15901057 -18.625 627.25 C-19.88070801 627.20359375 -21.13641602 627.1571875 -22.43017578 627.109375 C-71.1878083 625.19554464 -71.1878083 625.19554464 -93.66162109 616.96826172 C-95.80399775 616.18451736 -97.95768427 615.43797886 -100.11328125 614.69140625 C-136.45394384 601.90842869 -169.98153227 582.81691057 -199.625 558.25 C-200.63304687 557.42757812 -201.64109375 556.60515625 -202.6796875 555.7578125 C-216.90988782 543.97748481 -230.3445954 530.89768955 -241.625 516.25 C-242.5695638 515.09100936 -243.51774893 513.93496445 -244.46875 512.78125 C-251.44187791 504.28816687 -257.75913289 495.54070504 -263.625 486.25 C-263.99157715 485.67378906 -264.3581543 485.09757812 -264.73583984 484.50390625 C-287.44129178 448.56634033 -302.05593351 408.99937728 -309.625 367.25 C-309.83672852 366.10660156 -310.04845703 364.96320313 -310.26660156 363.78515625 C-313.36916057 346.30068744 -314.01161652 329.03932774 -314.0625 311.3125 C-314.06876404 310.29539948 -314.07502808 309.27829895 -314.08148193 308.2303772 C-314.15817279 288.55519806 -312.30968816 269.0580596 -308.125 249.8125 C-307.7542334 248.10477417 -307.7542334 248.10477417 -307.37597656 246.36254883 C-297.17111309 201.80191264 -276.9316812 160.1015622 -248.625 124.25 C-247.91214844 123.34507812 -247.19929688 122.44015625 -246.46484375 121.5078125 C-241.65357725 115.51706444 -236.57774317 109.82153911 -231.34765625 104.19921875 C-227.95105334 100.54366571 -224.67633369 96.78100945 -221.40234375 93.015625 C-219.625 91.25 -219.625 91.25 -217.625 91.25 C-217.625 90.59 -217.625 89.93 -217.625 89.25 C-216.2265625 87.83984375 -216.2265625 87.83984375 -214.25 86.1875 C-211.15658218 83.5675096 -208.15380568 80.88778556 -205.1875 78.125 C-187.83218213 62.53686495 -168.00546218 49.23639365 -147.46191406 38.24267578 C-145.67749818 37.27837023 -143.91254164 36.27832419 -142.1484375 35.27734375 C-99.26105219 11.13857495 -48.89425334 0.03280523 0 0 Z M-57.60302734 65.71289062 C-59.71265929 66.27328549 -61.83040273 66.77388631 -63.95703125 67.265625 C-77.73453263 70.53097568 -90.6286214 75.68328798 -103.625 81.25 C-104.83615479 81.76651123 -104.83615479 81.76651123 -106.07177734 82.29345703 C-133.32224656 94.0766342 -157.56187252 111.90134484 -179.1875 132.0625 C-179.82993652 132.66022217 -180.47237305 133.25794434 -181.13427734 133.8737793 C-185.59174169 138.09550676 -189.66436296 142.56157613 -193.625 147.25 C-194.11347412 147.82693604 -194.60194824 148.40387207 -195.10522461 148.99829102 C-238.94438594 201.40591192 -258.98702067 267.87953829 -254.38183594 335.83837891 C-253.19058866 349.14850324 -250.73427123 362.26350989 -247.625 375.25 C-247.32851562 376.50554687 -247.03203125 377.76109375 -246.7265625 379.0546875 C-234.80514042 426.43469832 -207.79858408 474.90729537 -169.8046875 506.4375 C-168.07021724 507.87978351 -166.37536218 509.36967549 -164.6953125 510.875 C-155.28793785 519.26935863 -145.21126044 526.41823326 -134.625 533.25 C-133.56756592 533.93473389 -133.56756592 533.93473389 -132.48876953 534.63330078 C-95.15837083 558.48451426 -50.5458263 567.76171731 -7.25 573.625 C-6.01499756 573.79273926 -4.77999512 573.96047852 -3.50756836 574.13330078 C9.00520207 575.73730247 19.82948898 574.74741092 32.1875 572.5625 C32.96845032 572.42617157 33.74940063 572.28984314 34.55401611 572.14938354 C64.78534497 566.95996245 64.78534497 566.95996245 93.375 556.25 C93.375 555.59 93.375 554.93 93.375 554.25 C94.62925781 554.02441406 95.88351562 553.79882812 97.17578125 553.56640625 C103.03581561 552.25743238 108.18959227 549.81592772 113.5625 547.1875 C114.57046631 546.69942871 115.57843262 546.21135742 116.61694336 545.70849609 C125.76119128 541.20267727 134.70397801 536.33666904 142.43359375 529.6171875 C145.375 527.25 145.375 527.25 147.765625 526.3203125 C151.78324027 524.67236851 154.81027787 521.88960605 158.125 519.125 C158.83366211 518.54041016 159.54232422 517.95582031 160.27246094 517.35351562 C170.50613725 508.98707793 170.50613725 508.98707793 179.375 499.25 C180.138125 498.651875 180.90125 498.05375 181.6875 497.4375 C184.63312522 495.03989807 186.92513907 492.43725576 189.37890625 489.55078125 C190.74647098 487.97446887 192.15271835 486.43113253 193.58984375 484.91796875 C227.55101775 449.08535242 248.09398262 398.98009503 256 350.75 C256.12318604 350.01571777 256.24637207 349.28143555 256.37329102 348.52490234 C266.28247526 285.59096788 249.63206789 219.6718533 212.72167969 168.11523438 C206.49295694 159.56950792 199.75595557 151.53532958 192.62890625 143.7265625 C191.1007804 142.04747795 189.58814142 140.35419177 188.08984375 138.6484375 C184.0768863 134.09170022 180.02139492 129.85272698 175.375 125.94140625 C173.31938856 124.20296923 171.35378371 122.38762816 169.375 120.5625 C159.65204532 111.90299349 148.07778162 101.9535284 136.04296875 96.83203125 C132.4302881 95.2738463 129.1432122 93.4866582 125.75 91.5 C124.52789533 90.79461641 123.30522506 90.09021197 122.08203125 89.38671875 C121.16091553 88.85570557 121.16091553 88.85570557 120.22119141 88.31396484 C119.30732666 87.78730225 119.30732666 87.78730225 118.375 87.25 C117.78251465 86.90791504 117.1900293 86.56583008 116.57958984 86.21337891 C114.87228785 85.23458909 113.15500544 84.27327294 111.4375 83.3125 C110.43847656 82.74660156 109.43945312 82.18070313 108.41015625 81.59765625 C105.03826482 80.10048438 102.03201494 79.6115822 98.375 79.25 C98.375 78.59 98.375 77.93 98.375 77.25 C95.41321227 75.57889958 93.00428808 74.92317248 89.625 74.625 C88.82578125 74.55023438 88.0265625 74.47546875 87.203125 74.3984375 C86.59984375 74.34945312 85.9965625 74.30046875 85.375 74.25 C85.375 73.59 85.375 72.93 85.375 72.25 C71.14283234 67.51615737 57.35199832 63.77308458 42.375 62.25 C41.715 61.92 41.055 61.59 40.375 61.25 C27.49341959 59.48087359 14.63909699 58.90271813 1.64819336 58.93432617 C-1.05851293 58.93749533 -3.76412958 58.91385271 -6.47070312 58.88867188 C-23.92908694 58.82601934 -40.77068881 61.0815941 -57.60302734 65.71289062 Z " fill="#B6B4B1" transform="translate(321.625,6.75)"/>
<path d="M0 0 C0.88945312 0.08668945 1.77890625 0.17337891 2.6953125 0.26269531 C9.11851372 0.93425686 9.11851372 0.93425686 11.375 2.0625 C14.28979677 2.52568127 17.20367391 2.95762741 20.125 3.375 C28.47957725 4.62893485 36.31181131 6.51303507 44.375 9.0625 C46.33266766 9.64806346 48.29093452 10.23163024 50.25 10.8125 C51.62529719 11.22818468 53.00042692 11.64442708 54.375 12.0625 C54.375 12.7225 54.375 13.3825 54.375 14.0625 C55.27992188 14.13597656 55.27992188 14.13597656 56.203125 14.2109375 C57.00234375 14.28570312 57.8015625 14.36046875 58.625 14.4375 C59.41390625 14.50710937 60.2028125 14.57671875 61.015625 14.6484375 C63.460877 15.07757113 65.22336903 15.84850638 67.375 17.0625 C67.375 17.7225 67.375 18.3825 67.375 19.0625 C68.60605469 19.25972656 69.83710938 19.45695312 71.10546875 19.66015625 C77.55011822 21.09496464 82.97193243 24.29353505 88.6875 27.5 C89.75806641 28.08587891 90.82863281 28.67175781 91.93164062 29.27539062 C99.73936511 33.58259493 99.73936511 33.58259493 102.49853516 35.66577148 C104.50171284 37.27243937 104.50171284 37.27243937 107.72265625 38.4765625 C111.43749358 40.08963625 114.56889721 42.05630833 117.8125 44.4375 C118.40232666 44.86522705 118.99215332 45.2929541 119.59985352 45.73364258 C124.43487303 49.28269217 129.14365803 52.98587925 133.8125 56.75 C134.46210693 57.27190918 135.11171387 57.79381836 135.78100586 58.33154297 C139.69420365 61.53019174 143.30336238 64.91189713 146.84106445 68.52026367 C148.56101441 70.24952102 150.36864722 71.82392915 152.25 73.375 C157.07305829 77.56174658 161.22906656 82.21278156 165.375 87.0625 C165.85066406 87.61518555 166.32632813 88.16787109 166.81640625 88.73730469 C205.50161271 133.97722963 227.51434783 190.75709915 227.5625 250.3125 C227.56358765 251.0357547 227.56467529 251.7590094 227.5657959 252.50418091 C227.56331836 267.06529609 226.5938862 281.20515456 224.0625 295.5625 C223.76182617 297.36654297 223.76182617 297.36654297 223.45507812 299.20703125 C222.17044088 306.61258716 220.45174055 313.75993656 218.29589844 320.96044922 C217.43647977 323.85540511 216.66994583 326.75827133 215.9375 329.6875 C214.28762933 335.72829631 211.86657705 341.32752339 209.375 347.0625 C208.71544386 348.64890787 208.0580598 350.23621979 207.40234375 351.82421875 C195.77815731 379.7877915 180.71024769 405.18187401 159.91796875 427.33203125 C157.71560742 429.69677867 155.59538207 432.10349414 153.5 434.5625 C151.00861531 437.44353253 148.3520806 439.68083552 145.375 442.0625 C144.38385173 443.24001803 143.40633533 444.42905614 142.4375 445.625 C137.70777125 451.18816113 131.84852902 455.36167167 126.06054688 459.7512207 C124.3642561 461.07085827 122.72576871 462.44245502 121.08984375 463.8359375 C118.375 466.0625 118.375 466.0625 116 467 C113.51877534 468.00430522 112.07596614 468.98749223 110 470.625 C100.90132875 477.60573102 90.80402274 483.03197093 80.5 488 C79.72809326 488.37745361 78.95618652 488.75490723 78.16088867 489.14379883 C72.96121718 491.58844129 68.02147638 492.99045528 62.375 494.0625 C62.375 494.7225 62.375 495.3825 62.375 496.0625 C56.85965359 498.39591579 51.72603229 499.63415148 45.79296875 500.4375 C42.87098937 500.9718048 40.12162072 501.65739363 37.265625 502.45703125 C13.86553485 508.95212081 -8.54066259 509.73059574 -32.625 509.0625 C-32.67514865 504.19190909 -32.71106618 499.32147467 -32.73486328 494.45068359 C-32.74480362 492.80026628 -32.75836063 491.149866 -32.77587891 489.49951172 C-32.94834785 472.8106053 -32.74703397 455.07698785 -22.7734375 440.87890625 C-21.397921 438.70334444 -20.57137675 436.45392125 -19.625 434.0625 C-18.75517755 432.5179062 -17.88004509 430.9762923 -17 429.4375 C-13.91366964 423.28315579 -13.24289883 417.38524196 -15.359375 410.765625 C-17.3627944 406.39751384 -19.99953706 403.24583332 -23.625 400.0625 C-24.8315625 398.9796875 -24.8315625 398.9796875 -26.0625 397.875 C-28.83970355 395.91063652 -31.36292785 394.97284572 -34.625 394.0625 C-33.7079607 399.65643971 -32.37687515 403.78188506 -29.5 408.6875 C-25.34542634 416.04263411 -25.34542634 416.04263411 -26.625 421.0625 C-30.90788912 426.20196695 -35.75191294 428.67292887 -42.3125 429.5625 C-47.96237652 429.38093497 -52.34514589 426.57069427 -56.625 423.0625 C-62.52972903 416.15575634 -64.13994255 410.15503046 -64.01953125 401.16796875 C-63.24840849 395.0982401 -60.23660367 391.14886494 -55.52734375 387.38671875 C-29.91221905 370.83738109 5.90532533 366.1009369 35.375 362.0625 C36.42171875 361.91683594 37.4684375 361.77117187 38.546875 361.62109375 C53.02765469 359.66089065 67.35798617 358.80963467 81.94741821 358.51867676 C112.19632475 358.15422601 112.19632475 358.15422601 139.3359375 346.49609375 C147.11808704 337.98313321 148.77545246 327.54352116 148.6484375 316.37890625 C148.0184287 308.7377995 144.8061397 302.42731955 139.55078125 296.890625 C133.3655375 291.6936877 126.03468215 288.01988219 117.83203125 288.5234375 C114.05257114 289.35263543 110.8601223 290.98019193 107.50390625 292.87109375 C105.375 294.0625 105.375 294.0625 102.375 295.0625 C102.705 296.7125 103.035 298.3625 103.375 300.0625 C104.47199219 300.03929687 105.56898438 300.01609375 106.69921875 299.9921875 C108.153639 299.97342079 109.60806664 299.95522156 111.0625 299.9375 C111.78373047 299.92074219 112.50496094 299.90398437 113.24804688 299.88671875 C117.41598219 299.84865541 120.67698393 300.07753549 124.375 302.0625 C127.99197374 305.77722979 128.6910772 308.91450481 128.875 313.9375 C128.56263962 321.83436076 126.21436885 326.55015001 120.625 332.0625 C117.39058957 334.66551539 114.90228195 335.97613277 110.58203125 335.55859375 C101.77410623 333.57875928 93.04612128 330.21849234 87.39868164 322.83398438 C82.2834259 313.98201784 84.11181409 301.02764334 84.1875 291.1875 C84.19639174 289.28914473 84.2050977 287.39078859 84.21362305 285.49243164 C84.67585843 203.78414407 84.67585843 203.78414407 100.30029297 175.05371094 C102.18133059 171.56853537 103.96467582 168.03486786 105.75 164.5 C106.08362549 163.85716064 106.41725098 163.21432129 106.76098633 162.55200195 C112.08363055 152.08317743 113.47726743 140.56186126 110.30078125 129.23046875 C105.11353548 117.37950674 95.46893761 109.91752363 83.75 104.875 C76.19659126 102.34184463 69.21773408 101.92857847 61.5625 104.1875 C54.40250857 108.39925967 50.58618903 112.00417126 48.03515625 120.12109375 C46.65480841 126.27140099 46.14693675 132.33495987 49 138.125 C51.65248375 141.40570358 53.29451057 142.22785443 57.375 143.0625 C57.21773438 142.49015625 57.06046875 141.9178125 56.8984375 141.328125 C55.59419577 135.68289959 55.54017717 130.81878594 58.5625 125.75 C63.71528782 118.57903695 63.71528782 118.57903695 68.66796875 117.6171875 C73.25505129 117.29796542 76.55633268 117.64218412 80.25 120.5 C86.1313901 126.3536477 88.05085011 133.97821135 88.6875 142 C88.58062527 147.18828225 86.31831306 150.09632444 82.71484375 153.7421875 C75.71110704 160.2138128 66.72496836 167.42457015 56.9921875 168.40234375 C52.85956237 168.01407335 50.00845209 166.68199193 46.5 164.625 C45.17336747 163.8863767 43.84653705 163.14810873 42.51953125 162.41015625 C41.83713379 162.02359863 41.15473633 161.63704102 40.45166016 161.23876953 C22.12465069 150.857917 3.33912321 143.52892263 -16.68896484 137.03125 C-17.79191895 136.67289063 -18.89487305 136.31453125 -20.03125 135.9453125 C-21.01416016 135.62965332 -21.99707031 135.31399414 -23.00976562 134.98876953 C-25.33485213 134.16526522 -27.45286198 133.22375841 -29.625 132.0625 C-31.12390767 107.48001563 -31.84063144 82.94167378 -31.875 58.3125 C-31.87999512 57.07575531 -31.88499023 55.83901062 -31.89013672 54.56478882 C-31.93160833 42.07157081 -31.78569704 29.63113282 -30.796875 17.171875 C-30.72776917 16.23377991 -30.65866333 15.29568481 -30.58746338 14.3291626 C-30.12920397 9.299693 -29.3744095 5.43094823 -26.625 1.0625 C-19.82518761 -3.86736398 -7.86326749 -0.76666858 0 0 Z " fill="#5B5B5A" transform="translate(352.625,66.9375)"/>
<path d="M0 0 C11.81526827 6.10732881 22.28588487 15.44769566 31.3359375 25.12109375 C34.65912343 28.47533749 38.31135205 31.30006203 42.0859375 34.12109375 C42.63983154 34.54310059 43.19372559 34.96510742 43.7644043 35.39990234 C55.62950131 44.08183885 68.20467251 49.90597312 82.17028809 54.29562378 C102.36792584 60.67493983 121.0429245 68.64768731 139.1484375 79.74609375 C143.77129623 82.46542242 146.76897204 83.46335581 152.1484375 82.74609375 C162.28426637 78.99722554 174.17838024 71.68620827 179.1484375 61.74609375 C179.77948396 52.91144332 177.77854316 44.74107351 172.1484375 37.74609375 C168.36563905 34.36830584 165.55721045 34.17209816 160.62109375 34.33203125 C155.54817394 35.18152493 153.29324875 38.21967874 150.2734375 42.24609375 C148.52653649 47.6808969 148.92169203 53.08585493 149.1484375 58.74609375 C143.65026783 58.18256944 143.65026783 58.18256944 141.46875 56.28515625 C137.24023172 49.51399953 137.14571613 43.58818248 138.7421875 35.87890625 C140.95540799 28.48101182 144.83924075 24.09688022 151.1484375 19.74609375 C157.52161582 16.34706531 165.6219576 16.85305114 172.46484375 18.5859375 C180.26048564 21.31947427 186.00995396 25.31007751 192.1484375 30.74609375 C192.98761719 31.3596875 193.82679688 31.97328125 194.69140625 32.60546875 C200.42809109 37.60340722 203.94809398 45.41778397 204.76953125 52.953125 C205.6223661 68.53561059 198.89005864 80.44583475 191.46630859 93.62036133 C187.44158383 100.88007013 184.86881859 107.60019291 183.1484375 115.74609375 C182.82230469 116.87789063 182.49617188 118.0096875 182.16015625 119.17578125 C180.5362782 125.65441001 180.16082386 132.35931765 179.5859375 138.99609375 C179.52151459 139.72627716 179.45709167 140.45646057 179.39071655 141.20877075 C178.12242466 155.71233721 177.36703073 170.18647256 177.1484375 184.74609375 C177.1284671 185.96755096 177.1284671 185.96755096 177.10809326 187.21368408 C177.01916979 192.78472041 176.95634758 198.35540703 176.91928101 203.92703247 C176.90556134 205.78260248 176.88731051 207.63814543 176.86416626 209.49362183 C176.01782909 225.93565799 176.01782909 225.93565799 181.70092773 240.72387695 C187.59791714 246.43226524 195.96156264 249.2656327 203.9609375 250.18359375 C208.28868299 250.1110617 210.56919974 248.55403937 213.60546875 245.56640625 C218.62559562 239.64392746 219.81330768 234.27867627 219.5390625 226.53125 C218.97255842 222.49207594 217.98834653 220.66488914 215.1484375 217.74609375 C211.2752591 216.21354114 207.05608078 216.6732912 202.9609375 216.74609375 C200.35044892 216.79177159 197.76029959 216.79331386 195.1484375 216.74609375 C194.1484375 215.74609375 194.1484375 215.74609375 193.78515625 213.38671875 C194.1484375 210.74609375 194.1484375 210.74609375 196.23046875 208.98046875 C197.13152344 208.490625 198.03257812 208.00078125 198.9609375 207.49609375 C200.30091797 206.74585938 200.30091797 206.74585938 201.66796875 205.98046875 C207.79524628 202.93130387 213.63649192 202.63321749 220.15625 204.69921875 C229.27557533 208.75743514 236.03182719 215.48896382 240.2109375 224.62109375 C243.60162478 235.75537767 240.89181787 247.45240912 235.609375 257.421875 C230.61953797 265.36025209 221.99885888 269.10873181 213.10351562 271.23486328 C208.14954694 272.27385174 203.16712636 273.09236807 198.1484375 273.74609375 C197.42180908 273.84108154 196.69518066 273.93606934 195.9465332 274.03393555 C189.58934322 274.76672046 183.24979907 274.8853276 176.85693359 274.9855957 C158.07402043 275.28733471 139.73001354 277.04939799 121.1484375 279.74609375 C120.03758789 279.90480957 118.92673828 280.06352539 117.78222656 280.22705078 C71.31417196 286.05491882 71.31417196 286.05491882 32.1484375 308.74609375 C28.18282694 314.1749973 28.5242126 319.25078061 29.1484375 325.74609375 C30.49616159 331.70342485 33.10901102 336.57164239 38.125 340.16015625 C43.38209998 343.39390504 47.00834497 344.62324983 53.1484375 343.74609375 C57.23816062 342.23083662 61.58270961 340.38548008 64.1484375 336.74609375 C64.84375517 331.13006641 63.55452668 327.99731892 60.6484375 323.24609375 C57.70571145 318.43497021 56.74818526 315.40680403 57.1484375 309.74609375 C63.15553922 310.04644884 66.93058059 312.69594487 71.1484375 316.74609375 C76.99425898 324.1575348 79.23074003 330.26661639 78.1484375 339.74609375 C74.44400347 351.07534939 66.52667429 358.458135 56.1484375 363.74609375 C55.50132812 364.08769531 54.85421875 364.42929687 54.1875 364.78125 C45.92865699 368.52734968 36.7440474 367.64116077 28.3984375 364.68359375 C16.71703248 359.6813033 8.33636277 351.68640203 3.37109375 340.015625 C-0.0694063 330.81531017 -2.64030446 321.48902107 -4.2890625 311.80859375 C-8.59578838 286.80729149 -21.30733506 264.71483771 -36.5625 244.796875 C-44.87759005 233.71481813 -53.59337624 221.53149356 -57.2265625 207.99609375 C-59.73852131 199.91871721 -66.43089877 194.15756009 -73.6015625 190.12109375 C-79.99850912 187.25715464 -85.94122383 186.53565534 -92.8515625 187.74609375 C-98.03824215 189.77458849 -101.83914056 193.04671552 -104.8515625 197.74609375 C-106.9694341 204.31435769 -107.00602347 212.20574277 -103.9765625 218.43359375 C-102.23700526 221.76643862 -102.23700526 221.76643862 -99.8515625 222.74609375 C-94.49837712 223.0971223 -91.14117249 223.26577374 -86.8515625 219.74609375 C-85.00504551 217.77208895 -83.23504944 215.75623199 -81.5 213.68359375 C-77.33860805 208.79247904 -77.33860805 208.79247904 -74.2265625 208.49609375 C-71.8515625 208.74609375 -71.8515625 208.74609375 -70.8515625 209.74609375 C-69.90427325 218.00104291 -72.33397599 223.8498205 -76.8515625 230.74609375 C-81.72509308 236.32850151 -87.32606948 240.32934926 -94.86328125 241.0234375 C-105.72191378 241.3387288 -114.5391066 238.96480545 -122.8515625 231.74609375 C-131.35944413 221.60208103 -132.90989932 209.65780294 -131.8515625 196.74609375 C-128.46825381 181.62311153 -118.64409393 170.97497188 -105.9765625 162.80859375 C-100.5541352 159.55641024 -94.97015159 156.88009639 -89.2265625 154.24609375 C-71.48766937 146.06400534 -59.36415838 133.99686043 -49.2109375 117.453125 C-38.54781334 100.13846298 -26.4223019 84.01280344 -10.4765625 71.18359375 C-5.16180119 66.6788065 -1.03992093 59.65901753 0.1484375 52.74609375 C0.90391842 43.57239688 0.9733831 35.3609966 -4.8515625 27.74609375 C-9.46331567 23.43410454 -14.39301606 22.44182234 -20.50390625 22.53125 C-25.23249159 22.96398244 -28.6247901 24.77096697 -32.2890625 27.68359375 C-34.84391239 32.69109953 -35.09634884 37.27719637 -33.8515625 42.74609375 C-29.96119628 48.82951739 -24.37718114 53.21225282 -18.8515625 57.74609375 C-18.8515625 58.40609375 -18.8515625 59.06609375 -18.8515625 59.74609375 C-29.41160558 60.41460761 -38.2212788 60.84009658 -46.8515625 53.74609375 C-49.27874248 51.26886882 -51.117339 48.74264321 -52.8515625 45.74609375 C-53.4703125 44.69421875 -54.0890625 43.64234375 -54.7265625 42.55859375 C-57.22917587 34.07751509 -56.86922841 24.70562056 -52.8515625 16.74609375 C-41.16942092 -2.65135628 -20.60035517 -9.05851234 0 0 Z M8.2890625 129.87890625 C-0.84128136 142.10823544 -4.38692692 155.58578216 -4.2890625 170.68359375 C-4.30904297 171.77349609 -4.32902344 172.86339844 -4.34960938 173.98632812 C-4.33912541 191.63084777 3.79408544 203.73514095 15.7109375 215.87109375 C27.6203547 227.67473052 40.96368586 237.790284 58.3359375 238.77734375 C77.08878946 238.56897873 95.32244073 228.48354665 108.4609375 215.52734375 C120.59109075 202.97404562 127.82745898 188.46454693 128.5234375 170.74609375 C127.91935652 154.72481565 121.95055834 141.14051101 112.1484375 128.74609375 C111.4059375 127.71484375 110.6634375 126.68359375 109.8984375 125.62109375 C96.87195004 112.00249322 79.88721953 104.97475921 61.1484375 104.37109375 C40.18121052 105.0999011 22.0264084 114.07615519 8.2890625 129.87890625 Z " fill="#B6B4B1" transform="translate(260.8515625,151.25390625)"/>
<path d="M0 0 C-2.65860555 2.65860555 -5.60749327 3.22913586 -9.125 4.25 C-20.43791243 7.66677228 -31.62117637 11.45601291 -42.08203125 17.01953125 C-44 18 -44 18 -47 19 C-47.020625 20.27875 -47.04125 21.5575 -47.0625 22.875 C-47.07410156 23.59429687 -47.08570313 24.31359375 -47.09765625 25.0546875 C-47.12649242 27.08185404 -47.12649242 27.08185404 -46 29 C-47.98 28.67 -49.96 28.34 -52 28 C-51.0829607 33.59393971 -49.75187515 37.71938506 -46.875 42.625 C-42.72042634 49.98013411 -42.72042634 49.98013411 -44 55 C-48.28288912 60.13946695 -53.12691294 62.61042887 -59.6875 63.5 C-65.33737652 63.31843497 -69.72014589 60.50819427 -74 57 C-79.90472903 50.09325634 -81.51494255 44.09253046 -81.39453125 35.10546875 C-80.62340849 29.0357401 -77.61160367 25.08636494 -72.90234375 21.32421875 C-57.13713628 11.13868404 -37.38518111 6.94260443 -19.375 2.6875 C-18.26020264 2.42066406 -17.14540527 2.15382813 -15.99682617 1.87890625 C-10.54597862 0.62384478 -5.59659005 -0.3447756 0 0 Z " fill="#858583" transform="translate(370,433)"/>
<path d="M0 0 C8.4815617 2.50532284 15.25916623 6.91420806 21.8515625 12.6875 C22.72409668 13.42190308 22.72409668 13.42190308 23.61425781 14.17114258 C26.50956887 16.8504977 27.51477646 18.26643801 27.71484375 22.25 C26.35470588 26.29878251 24.37275123 28.8484478 21.4140625 31.8125 C20.91487305 32.33126709 20.41568359 32.85003418 19.90136719 33.38452148 C18.46598033 34.86003793 17.00979289 36.30980016 15.5390625 37.75 C14.86617187 38.41 14.19328125 39.07 13.5 39.75 C8.05900214 44.71894782 2.22129458 47.48081181 -5.24609375 47.23828125 C-9.23762159 46.3583148 -11.90279083 43.83961758 -14.4609375 40.75 C-17.24055888 36.05306942 -16.82886967 31.44707359 -16.8359375 26.125 C-16.86042969 25.17753906 -16.88492188 24.23007812 -16.91015625 23.25390625 C-16.94056768 15.84365489 -15.60469793 9.10656945 -11.19018555 2.98901367 C-7.70683765 -0.51834489 -4.58900919 -0.85947998 0 0 Z " fill="#B6B4B1" transform="translate(106.4609375,298.25)"/>
<path d="M0 0 C5.09299988 2.80716529 7.99672579 6.99017736 9.8125 12.4375 C9.98810807 15.34798781 10.08968869 18.21299369 10.125 21.125 C10.15400391 21.90294922 10.18300781 22.68089844 10.21289062 23.48242188 C10.27592819 29.29642462 9.11093962 33.60736132 5.8125 38.4375 C3.08903256 41.16096744 1.01406668 41.92539175 -2.8125 42.0625 C-10.54994499 41.78981471 -15.47499122 37.14172631 -20.74609375 31.88671875 C-28.75714945 23.2347786 -28.75714945 23.2347786 -29.6875 17.1875 C-28.77185529 10.32016467 -24.33068446 6.11871738 -19 2 C-13.0764929 -2.28782467 -6.68033972 -2.9606051 0 0 Z " fill="#B6B4B1" transform="translate(543.1875,302.5625)"/>
<path d="M0 0 C4.92324204 1.58722282 8.57576949 4.454481 12.625 7.5625 C13.33068115 8.0989917 14.0363623 8.6354834 14.76342773 9.18823242 C22.62912062 15.19685964 30.45054146 21.18901216 37.33203125 28.33203125 C39.10184254 30.10184254 40.96150732 31.69975273 42.875 33.3125 C47.69805829 37.49924658 51.85406656 42.15028156 56 47 C56.47566406 47.55268555 56.95132813 48.10537109 57.44140625 48.67480469 C96.12661271 93.91472963 118.13934783 150.69459915 118.1875 210.25 C118.18858765 210.9732547 118.18967529 211.6965094 118.1907959 212.44168091 C118.18831836 227.00279609 117.2188862 241.14265456 114.6875 255.5 C114.48705078 256.70269531 114.28660156 257.90539062 114.08007812 259.14453125 C112.79942053 266.52714565 111.08965467 273.6529787 108.93920898 280.83081055 C107.7463613 284.85585755 106.72194485 288.91451634 105.7109375 292.98828125 C105 295 105 295 103 296 C104.01809325 290.27891313 105.07475298 284.56845235 106.21875 278.87109375 C106.53392578 277.28651367 106.53392578 277.28651367 106.85546875 275.66992188 C107.27991379 273.54126567 107.70947291 271.4136218 108.14453125 269.28710938 C111.51935582 252.17488538 112.37556764 235.34883503 112.3125 217.9375 C112.31067719 216.89151642 112.30885437 215.84553284 112.30697632 214.76785278 C112.19769939 177.33854709 108.84502882 141.97269236 92 108 C91.6484082 107.28215332 91.29681641 106.56430664 90.93457031 105.82470703 C80.03508174 83.73437633 66.02148543 63.49774967 49.26953125 45.453125 C47.27530546 43.29757629 45.34716597 41.10513865 43.4375 38.875 C34.83892653 29.00480651 25.04626077 20.63185333 14.9375 12.375 C14.26452881 11.82424805 13.59155762 11.27349609 12.89819336 10.70605469 C9.66675239 8.08295471 6.41343937 5.55253604 3.00390625 3.1640625 C2.01261719 2.44992188 1.02132813 1.73578125 0 1 C0 0.67 0 0.34 0 0 Z " fill="#858583" transform="translate(462,107)"/>
<path d="M0 0 C0.33 0 0.66 0 1 0 C1.72447894 15.24625671 0.15776402 26.03356417 -8.5625 38.875 C-13.31079668 45.86775246 -15.25181293 52.72303848 -17 61 C-17.32355469 62.21558594 -17.64710938 63.43117188 -17.98046875 64.68359375 C-21.93736529 79.85296176 -23.01989401 95.61858466 -24.60693359 111.17236328 C-25.0463481 115.45133264 -25.51531502 119.72595974 -26 124 C-26.33 124 -26.66 124 -27 124 C-27.9633632 94.63526239 -26.32019033 64.18600886 -12.07470703 37.99121094 C-10.19366941 34.50603537 -8.41032418 30.97236786 -6.625 27.4375 C-6.29137451 26.79466064 -5.95774902 26.15182129 -5.61401367 25.48950195 C-2.3687197 19.10650663 -0.81586281 13.18978204 -0.375 6.0625 C-0.30023438 4.91910156 -0.22546875 3.77570313 -0.1484375 2.59765625 C-0.09945313 1.74042969 -0.05046875 0.88320312 0 0 Z " fill="#868583" transform="translate(465,204)"/>
<path d="M0 0 C14.60357456 1.70538387 28.25407362 7.04075601 41.10644531 13.984375 C44.29193147 15.692939 47.52046492 17.31424039 50.75 18.9375 C51.85859375 19.50339844 52.9671875 20.06929687 54.109375 20.65234375 C58.21036072 22.56428979 61.47065419 23.12517894 65.984375 23.09765625 C66.91894531 23.09443359 67.85351562 23.09121094 68.81640625 23.08789062 C70.26853516 23.07532227 70.26853516 23.07532227 71.75 23.0625 C72.73355469 23.05798828 73.71710938 23.05347656 74.73046875 23.04882812 C77.15370791 23.03706483 79.57682273 23.02062684 82 23 C77.80421865 27.42430974 73.89556526 29.74299717 67.69921875 30.29296875 C63.50077374 29.96046255 60.67881716 28.6460893 57.125 26.5625 C55.79836747 25.8238767 54.47153705 25.08560873 53.14453125 24.34765625 C52.46213379 23.96109863 51.77973633 23.57454102 51.07666016 23.17626953 C34.76148832 13.93496952 17.93380245 6.54052433 0 1 C0 0.67 0 0.34 0 0 Z " fill="#868683" transform="translate(342,205)"/>
<path d="M0 0 C0.33 0 0.66 0 1 0 C1.01981934 0.81452637 1.03963867 1.62905273 1.06005859 2.46826172 C1.4666577 21.51286761 1.4666577 21.51286761 2.875 40.5 C2.94122559 41.19077637 3.00745117 41.88155273 3.07568359 42.59326172 C3.68069087 47.71324866 4.90491719 52.18885039 8.90234375 55.64453125 C9.57394531 56.02996094 10.24554688 56.41539062 10.9375 56.8125 C11.60652344 57.21082031 12.27554687 57.60914063 12.96484375 58.01953125 C18.8520111 60.85576734 26.06471759 60.94629511 32.35546875 59.43359375 C35.97799935 58.13546365 39.10120758 56.53644337 42 54 C40.65279764 59.55720975 36.67479469 63.0273952 32 66 C24.03532529 67.43625282 16.52682184 63.95934546 9.625 60.125 C2.83285059 54.62659333 1.17516356 50.47981544 0 42 C-0.22975697 38.60594918 -0.23579563 35.23648076 -0.1953125 31.8359375 C-0.1924826 30.91785309 -0.18965271 29.99976868 -0.18673706 29.05386353 C-0.17566399 26.16076864 -0.15058467 23.26799914 -0.125 20.375 C-0.11495352 18.39713993 -0.10583061 16.41927494 -0.09765625 14.44140625 C-0.07576705 9.62748141 -0.04132832 4.8137956 0 0 Z " fill="#858583" transform="translate(437,336)"/>
<path d="M0 0 C5.49866596 2.75974712 8.08575414 7.37451556 10.46875 12.8515625 C11.07083284 15.28645632 10.80685789 16.65374218 10 19 C9.63648438 18.40832031 9.27296875 17.81664062 8.8984375 17.20703125 C5.74806796 12.25529657 2.99907976 8.16268311 -2 5 C-5.58622438 4.28275512 -7.71771838 4.22534327 -10.89453125 6.14453125 C-14.78148964 9.24591489 -17.11147967 12.3342439 -19 17 C-19.33 17 -19.66 17 -20 17 C-19.46056269 10.25703365 -17.32352478 6.59688064 -12.875 1.625 C-8.58016001 -0.80251826 -4.81079295 -0.96967545 0 0 Z " fill="#868683" transform="translate(429,185)"/>
<path d="M0 0 C0.66 0.33 1.32 0.66 2 1 C0.36926865 2.31068127 -1.2805497 3.59762542 -2.9375 4.875 C-3.85402344 5.59429687 -4.77054687 6.31359375 -5.71484375 7.0546875 C-12.52503227 11.08735561 -19.74738084 11.30764663 -27.5 11.1875 C-28.29019531 11.18685547 -29.08039063 11.18621094 -29.89453125 11.18554688 C-35.32564034 11.14554689 -40.61131132 10.67358608 -46 10 C-46 9.67 -46 9.34 -46 9 C-44.96613159 8.88724731 -44.96613159 8.88724731 -43.91137695 8.7722168 C-23.2375245 6.77407672 -23.2375245 6.77407672 -3.3125 1.25 C-2.219375 0.8375 -1.12625 0.425 0 0 Z " fill="#848482" transform="translate(486,417)"/>
<path d="M0 0 C0.33 0 0.66 0 1 0 C1.433125 1.8871875 1.433125 1.8871875 1.875 3.8125 C4.74447576 12.42092727 12.28227944 19.79354156 20.10546875 24.20703125 C23.08428544 25.45383494 25.78453664 25.79903354 29 26 C29 26.33 29 26.66 29 27 C21.24983741 27.71908725 15.72568082 27.28213393 9.1953125 22.8515625 C4.70468811 19.06409638 1.32564443 14.39464553 -1 9 C-1.328125 2.65625 -1.328125 2.65625 0 0 Z " fill="#838381" transform="translate(513,318)"/>
<path d="M0 0 C4.13793544 1.78683576 6.56814869 4.22643762 9 8 C11.61691306 15.19651091 11.19162906 22.42000601 11 30 C10.34 30.33 9.68 30.66 9 31 C8.98582031 30.02160156 8.97164062 29.04320312 8.95703125 28.03515625 C8.59076895 16.6488803 8.59076895 16.6488803 3 7 C-1.26590163 3.86640559 -5.74203654 2.52579635 -11 2 C-7.28671335 -0.47552443 -4.30393027 -0.54010105 0 0 Z " fill="#858482" transform="translate(544,299)"/>
<path d="M0 0 C6.01233934 2.60314473 9.70031536 7.77795852 12.9375 13.3125 C15.61602965 22.60857348 13.99601665 31.27876659 10 40 C9.01 40.495 9.01 40.495 8 41 C8.144375 40.35675781 8.28875 39.71351563 8.4375 39.05078125 C10.71316193 27.97273255 11.84751939 17.13570027 6 7 C4.13075565 4.4651223 2.18470755 2.28401244 0 0 Z " fill="#848482" transform="translate(491,363)"/>
<path d="M0 0 C2.37109375 1.5078125 2.37109375 1.5078125 3.37109375 3.5078125 C2.83452148 3.29415039 2.29794922 3.08048828 1.74511719 2.86035156 C-4.11897849 0.69324074 -9.15956671 0.09910527 -15.37890625 0.2578125 C-16.20261719 0.26296875 -17.02632813 0.268125 -17.875 0.2734375 C-21.9098334 0.32541603 -25.69385738 0.51605221 -29.62890625 1.5078125 C-21.64462209 -8.35512676 -9.54016468 -5.03137347 0 0 Z " fill="#888886" transform="translate(487.62890625,359.4921875)"/>
<path d="M0 0 C0.93423645 3.01031744 1.04449911 3.86650268 0 7 C-0.69004104 14.10402903 -0.48876059 19.29806088 4 25 C6.5908295 26.49113354 6.5908295 26.49113354 9 27 C8.34 27.33 7.68 27.66 7 28 C6.27840576 29.64363134 5.60648579 31.31050386 5 33 C-0.35127224 28.15462535 -2.4896316 22.18950764 -3.35546875 15.08203125 C-3.52314789 9.29310845 -2.72279298 5.10523684 0 0 Z " fill="#848482" transform="translate(400,183)"/>
<path d="M0 0 C0.226875 0.639375 0.45375 1.27875 0.6875 1.9375 C1.85250896 4.27193661 1.85250896 4.27193661 4.625 4.75 C5.40875 4.8325 6.1925 4.915 7 5 C0.24038462 11.94230769 0.24038462 11.94230769 -3.6875 12.125 C-4.8321875 12.063125 -4.8321875 12.063125 -6 12 C-5.73781251 7.5428126 -5.42288711 5.48477302 -2.4375 2.0625 C-1.633125 1.381875 -0.82875 0.70125 0 0 Z " fill="#848482" transform="translate(454,363)"/>
<path d="M0 0 C0.66 0.33 1.32 0.66 2 1 C-6.91 9.91 -15.82 18.82 -25 28 C-25.66 27.67 -26.32 27.34 -27 27 C-26.49210937 26.50371094 -25.98421875 26.00742188 -25.4609375 25.49609375 C-22.02687106 22.10704316 -18.69962192 18.7215102 -15.625 15 C-14.75875 14.01 -13.8925 13.02 -13 12 C-12.34 12 -11.68 12 -11 12 C-11 11.34 -11 10.68 -11 10 C-9.35546875 8.37890625 -9.35546875 8.37890625 -7.1875 6.5625 C-4.68897282 4.45536324 -2.2757944 2.34758602 0 0 Z " fill="#A3A29F" transform="translate(115,86)"/>
<path d="M0 0 C17.97035747 -0.99222833 17.97035747 -0.99222833 25 5 C26.89858805 6.92108317 28.41285152 8.79847147 30 11 C27.78168892 9.91688098 25.62243015 8.78491377 23.4765625 7.5625 C15.75399248 3.33095478 8.74206211 1.75005858 0 1 C0 0.67 0 0.34 0 0 Z " fill="#878785" transform="translate(420,168)"/>
</svg>
